<mxfile modified="2024-01-14T22:02:50.765Z" host="app.diagrams.net" agent="Mozilla/5.0 (Macintosh; Intel Mac OS X 10_15_7) AppleWebKit/537.36 (KHTML, like Gecko) Chrome/120.0.0.0 Safari/537.36" etag="ZLkhm04OKYTiDYPn0R1b" version="22.1.18" type="github">
  <diagram id="7gcUSTIZ7YSJ5vT40chW" name="Page-1">
    <mxGraphModel dx="1366" dy="804" grid="1" gridSize="10" guides="1" tooltips="1" connect="1" arrows="1" fold="1" page="1" pageScale="1" pageWidth="1169" pageHeight="827" math="0" shadow="0">
      <root>
        <mxCell id="0" />
        <mxCell id="1" parent="0" />
        <mxCell id="SZY12_XKgGBlkoAp8IEY-12" style="edgeStyle=orthogonalEdgeStyle;rounded=0;orthogonalLoop=1;jettySize=auto;html=1;strokeColor=#808080;" parent="1" source="SZY12_XKgGBlkoAp8IEY-1" target="SZY12_XKgGBlkoAp8IEY-5" edge="1">
          <mxGeometry relative="1" as="geometry" />
        </mxCell>
        <mxCell id="SZY12_XKgGBlkoAp8IEY-1" value="" style="aspect=fixed;html=1;perimeter=none;align=center;shadow=0;dashed=0;image;fontSize=12;image=img/lib/mscae/NetworkInterfaceCard.svg;" parent="1" vertex="1">
          <mxGeometry x="430" y="100" width="44.5" height="50" as="geometry" />
        </mxCell>
        <mxCell id="SZY12_XKgGBlkoAp8IEY-14" style="edgeStyle=orthogonalEdgeStyle;rounded=0;orthogonalLoop=1;jettySize=auto;html=1;exitX=1.033;exitY=0.51;exitDx=0;exitDy=0;exitPerimeter=0;entryX=0.013;entryY=0.503;entryDx=0;entryDy=0;entryPerimeter=0;strokeColor=#808080;" parent="1" source="SZY12_XKgGBlkoAp8IEY-2" target="SZY12_XKgGBlkoAp8IEY-6" edge="1">
          <mxGeometry relative="1" as="geometry" />
        </mxCell>
        <mxCell id="SZY12_XKgGBlkoAp8IEY-2" value="Databricks&lt;br&gt;Spark" style="aspect=fixed;html=1;perimeter=none;align=center;shadow=0;dashed=0;image;fontSize=12;image=img/lib/mscae/Databricks.svg;" parent="1" vertex="1">
          <mxGeometry x="559.75" y="220.5" width="47.5" height="50" as="geometry" />
        </mxCell>
        <mxCell id="SZY12_XKgGBlkoAp8IEY-13" style="edgeStyle=elbowEdgeStyle;rounded=0;orthogonalLoop=1;jettySize=auto;html=1;strokeColor=#808080;elbow=vertical;" parent="1" source="SZY12_XKgGBlkoAp8IEY-5" edge="1">
          <mxGeometry relative="1" as="geometry">
            <mxPoint x="554.5" y="246" as="targetPoint" />
          </mxGeometry>
        </mxCell>
        <mxCell id="SZY12_XKgGBlkoAp8IEY-5" value="Azure IoT&#xa;Hub" style="shape=image;verticalLabelPosition=bottom;labelBackgroundColor=#ffffff;verticalAlign=top;aspect=fixed;imageAspect=0;image=data:image/svg+xml,PHN2ZyB4bWxuczpjYz0iaHR0cDovL2NyZWF0aXZlY29tbW9ucy5vcmcvbnMjIiB4bWxuczpkYz0iaHR0cDovL3B1cmwub3JnL2RjL2VsZW1lbnRzLzEuMS8iIHhtbG5zOmlua3NjYXBlPSJodHRwOi8vd3d3Lmlua3NjYXBlLm9yZy9uYW1lc3BhY2VzL2lua3NjYXBlIiB4bWxuczpyZGY9Imh0dHA6Ly93d3cudzMub3JnLzE5OTkvMDIvMjItcmRmLXN5bnRheC1ucyMiIHhtbG5zOnNvZGlwb2RpPSJodHRwOi8vc29kaXBvZGkuc291cmNlZm9yZ2UubmV0L0RURC9zb2RpcG9kaS0wLmR0ZCIgeG1sbnM6c3ZnPSJodHRwOi8vd3d3LnczLm9yZy8yMDAwL3N2ZyIgeG1sbnM9Imh0dHA6Ly93d3cudzMub3JnLzIwMDAvc3ZnIiB4bWxuczp4bGluaz0iaHR0cDovL3d3dy53My5vcmcvMTk5OS94bGluayIgdmVyc2lvbj0iMS4xIiBpZD0ic3ZnNTg3OTUiIGlua3NjYXBlOnZlcnNpb249IjAuOTIuMyAoMjQwNTU0NiwgMjAxOC0wMy0xMSkiIHNvZGlwb2RpOmRvY25hbWU9ImF6dXJlX2lvdF9odWIuc3ZnIiB4PSIwcHgiIHk9IjBweCIgdmlld0JveD0iMCAwIDM3LjU2IDM3LjQ1IiBzdHlsZT0iZW5hYmxlLWJhY2tncm91bmQ6bmV3IDAgMCAzNy41NiAzNy40NTsiIHhtbDpzcGFjZT0icHJlc2VydmUiPiYjeGE7PHNvZGlwb2RpOm5hbWVkdmlldyBib3JkZXJjb2xvcj0iIzY2NjY2NiIgYm9yZGVyb3BhY2l0eT0iMSIgZml0LW1hcmdpbi1ib3R0b209IjAiIGZpdC1tYXJnaW4tbGVmdD0iMCIgZml0LW1hcmdpbi1yaWdodD0iMCIgZml0LW1hcmdpbi10b3A9IjAiIGdyaWR0b2xlcmFuY2U9IjEwIiBndWlkZXRvbGVyYW5jZT0iMTAiIGlkPSJuYW1lZHZpZXc1ODc5NyIgaW5rc2NhcGU6Y3VycmVudC1sYXllcj0ic3ZnNTg3OTUiIGlua3NjYXBlOmN4PSIyMC4xMDI5NTciIGlua3NjYXBlOmN5PSIyMC4xNjUyNzkiIGlua3NjYXBlOnBhZ2VvcGFjaXR5PSIwIiBpbmtzY2FwZTpwYWdlc2hhZG93PSIyIiBpbmtzY2FwZTp3aW5kb3ctaGVpZ2h0PSIxMDE3IiBpbmtzY2FwZTp3aW5kb3ctbWF4aW1pemVkPSIxIiBpbmtzY2FwZTp3aW5kb3ctd2lkdGg9IjE5MjAiIGlua3NjYXBlOndpbmRvdy14PSItOCIgaW5rc2NhcGU6d2luZG93LXk9Ii04IiBpbmtzY2FwZTp6b29tPSIxMS44MDQ2MzIiIG9iamVjdHRvbGVyYW5jZT0iMTAiIHBhZ2Vjb2xvcj0iI2ZmZmZmZiIgc2hvd2dyaWQ9ImZhbHNlIj4mI3hhOwk8L3NvZGlwb2RpOm5hbWVkdmlldz4mI3hhOzxnIGlkPSJnNTg3OTMiIHRyYW5zZm9ybT0idHJhbnNsYXRlKC0wLjc1LC0wLjc0NTUpIj4mI3hhOwk8dGl0bGUgaWQ9InRpdGxlNTg3MzMiPlBhZ2UtMTwvdGl0bGU+JiN4YTsJPGcgaWQ9Imdyb3VwNTI1Ny0xIiB0cmFuc2Zvcm09InRyYW5zbGF0ZSgwLjc1LC0wLjc1KSI+JiN4YTsJCTx0aXRsZSBpZD0idGl0bGU1ODczNSI+QXp1cmUgSW9UIEh1YjwvdGl0bGU+JiN4YTsJCTxnIGlkPSJzaGFwZTUyNTgtMiIgdHJhbnNmb3JtPSJyb3RhdGUoLTEyNS4xMDYsNi45ODcyMTQ3LDIyLjIzNzQ2NykiPiYjeGE7CQkJPHRpdGxlIGlkPSJ0aXRsZTU4NzM3Ij5TaGVldC41MjU4PC90aXRsZT4mI3hhOwkJCSYjeGE7CQkJCTxyZWN0IGlkPSJyZWN0NTg3MzkiIHg9IjYuMjgiIHk9IjMwLjc5IiB0cmFuc2Zvcm09Im1hdHJpeCgtMi4yMTA5ODBlLTA2IC0xIDEgLTIuMjEwOTgwZS0wNiAtMzAuNzkxMSA0NS4yMzE2KSIgc3R5bGU9ImZpbGw6I0I4RDQzMjsiIHdpZHRoPSIxLjg4IiBoZWlnaHQ9IjE0LjQ0Ii8+JiN4YTsJCTwvZz4mI3hhOwkJPGcgaWQ9InNoYXBlNTI1OS00IiB0cmFuc2Zvcm09InJvdGF0ZSgtMTE5Ljc4OCwxMy44MDkwMDMsMjUuNzU5MDc4KSI+JiN4YTsJCQk8dGl0bGUgaWQ9InRpdGxlNTg3NDIiPlNoZWV0LjUyNTk8L3RpdGxlPiYjeGE7CQkJJiN4YTsJCQkJPHJlY3QgaWQ9InJlY3Q1ODc0NCIgeD0iNi40NiIgeT0iMzAuNjEiIHRyYW5zZm9ybT0ibWF0cml4KC0yLjQ4NTYzM2UtMDYgLTEgMSAtMi40ODU2MzNlLTA2IC0zMC42MTQ4IDQ1LjQwNzcpIiBzdHlsZT0iZmlsbDojQjhENDMyOyIgd2lkdGg9IjEuODgiIGhlaWdodD0iMTQuNzkiLz4mI3hhOwkJPC9nPiYjeGE7CQk8ZyBpZD0ic2hhcGU1MjYwLTYiIHRyYW5zZm9ybT0icm90YXRlKC05NC43NDYyLDMuMjEzMDcxNiwxOC4zOTUwMDUpIj4mI3hhOwkJCTx0aXRsZSBpZD0idGl0bGU1ODc0NyI+U2hlZXQuNTI2MDwvdGl0bGU+JiN4YTsJCQkmI3hhOwkJCQk8cmVjdCBpZD0icmVjdDU4NzQ5IiB4PSItOC4wNCIgeT0iMjkuMDMiIHRyYW5zZm9ybT0ibWF0cml4KC0yLjY1OTE4N2UtMDYgLTEgMSAtMi42NTkxODdlLTA2IC0yOS4wMjk5IDMwLjkwODUpIiBzdHlsZT0iZmlsbDojQjhENDMyOyIgd2lkdGg9IjE3Ljk2IiBoZWlnaHQ9IjEuODgiLz4mI3hhOwkJPC9nPiYjeGE7CQk8ZyBpZD0ic2hhcGU1MjYxLTgiIHRyYW5zZm9ybT0icm90YXRlKC0xNDguOTI4LDkuNjUwNDI3MywyNS43NjM0NjQpIj4mI3hhOwkJCTx0aXRsZSBpZD0idGl0bGU1ODc1MiI+U2hlZXQuNTI2MTwvdGl0bGU+JiN4YTsJCQkmI3hhOwkJCQk8cmVjdCBpZD0icmVjdDU4NzU0IiB4PSItNS4xNyIgeT0iMzEuOTEiIHRyYW5zZm9ybT0ibWF0cml4KC0yLjgwNTE0M2UtMDYgLTEgMSAtMi44MDUxNDNlLTA2IC0zMS45MDY3IDMzLjc4NTEpIiBzdHlsZT0iZmlsbDojQjhENDMyOyIgd2lkdGg9IjEyLjIxIiBoZWlnaHQ9IjEuODgiLz4mI3hhOwkJPC9nPiYjeGE7CQk8ZyBpZD0ic2hhcGU1MjYyLTEwIiB0cmFuc2Zvcm09InRyYW5zbGF0ZSgyNi44ODQ1LC0yNi44ODQ1KSI+JiN4YTsJCQk8dGl0bGUgaWQ9InRpdGxlNTg3NTciPlNoZWV0LjUyNjI8L3RpdGxlPiYjeGE7CQkJPHBhdGggaWQ9InBhdGg1ODc1OSIgaW5rc2NhcGU6Y29ubmVjdG9yLWN1cnZhdHVyZT0iMCIgc3R5bGU9ImZpbGw6IzAwNzJDNjsiIGQ9Ik0xMC4xLDI4LjM4SDAuNTlDMC4yMywyOC4zOCwwLDI4LjYyLDAsMjkuMDkgICAgIHYzLjRjMCwwLjM2LDAuMjMsMC41OSwwLjU5LDAuNTloNS40djUuMjhjMCwwLjM2LDAuMjMsMC41OSwwLjcsMC41OWgzLjQxYzAuMzUsMCwwLjU4LTAuMjMsMC41OC0wLjU5di05LjM5ICAgICBDMTAuNjgsMjguNjIsMTAuNDUsMjguMzgsMTAuMSwyOC4zOHoiLz4mI3hhOwkJPC9nPiYjeGE7CQk8ZyBpZD0ic2hhcGU1MjYzLTEyIj4mI3hhOwkJCTx0aXRsZSBpZD0idGl0bGU1ODc2MiI+U2hlZXQuNTI2MzwvdGl0bGU+JiN4YTsJCQk8cGF0aCBpZD0icGF0aDU4NzY0IiBpbmtzY2FwZTpjb25uZWN0b3ItY3VydmF0dXJlPSIwIiBzdHlsZT0iZmlsbDojMDA3MkM2OyIgZD0iTTAuNTksMzguOTVoOS41MWMwLjM1LDAsMC41OC0wLjIzLDAuNTgtMC43ICAgICB2LTMuNDFjMC0wLjM1LTAuMjMtMC41OS0wLjU4LTAuNTlINC43di01LjI4YzAtMC4zNS0wLjI0LTAuNTktMC43MS0wLjU5aC0zLjRDMC4yMywyOC4zOCwwLDI4LjYyLDAsMjguOTd2OS4zOSAgICAgQzAsMzguNzIsMC4yMywzOC45NSwwLjU5LDM4Ljk1eiIvPiYjeGE7CQk8L2c+JiN4YTsJCTxnIGlkPSJzaGFwZTUyNjQtMTQiIHRyYW5zZm9ybT0idHJhbnNsYXRlKDEyLjA5MjIsLTI4LjA1ODUpIj4mI3hhOwkJCTx0aXRsZSBpZD0idGl0bGU1ODc2NyI+U2hlZXQuNTI2NDwvdGl0bGU+JiN4YTsJCQk8Y2lyY2xlIGlkPSJlbGxpcHNlNTg3NjkiIHN0eWxlPSJmaWxsOiMwMDZERDY7IiBjeD0iMy42NCIgY3k9IjM1LjMxIiByPSIzLjY0Ii8+JiN4YTsJCTwvZz4mI3hhOwkJPGcgaWQ9InNoYXBlNTI2NS0xNiIgdHJhbnNmb3JtPSJ0cmFuc2xhdGUoMTkuNzIzMSwtMTUuNjE0MikiPiYjeGE7CQkJPHRpdGxlIGlkPSJ0aXRsZTU4NzcyIj5TaGVldC41MjY1PC90aXRsZT4mI3hhOwkJCTxjaXJjbGUgaWQ9ImVsbGlwc2U1ODc3NCIgc3R5bGU9ImZpbGw6IzAwNkRENjsiIGN4PSI0LjM0IiBjeT0iMzQuNjEiIHI9IjQuMzQiLz4mI3hhOwkJPC9nPiYjeGE7CQk8ZyBpZD0ic2hhcGU1MjY2LTE4IiB0cmFuc2Zvcm09InRyYW5zbGF0ZSgyNy45NDExLC0zLjYzOTM5KSI+JiN4YTsJCQk8dGl0bGUgaWQ9InRpdGxlNTg3NzciPlNoZWV0LjUyNjY8L3RpdGxlPiYjeGE7CQkJPGNpcmNsZSBpZD0iZWxsaXBzZTU4Nzc5IiBzdHlsZT0iZmlsbDojMDA2REQ2OyIgY3g9IjMuNCIgY3k9IjM1LjU1IiByPSIzLjQiLz4mI3hhOwkJPC9nPiYjeGE7CQk8ZyBpZD0ic2hhcGU1MjY3LTIwIiB0cmFuc2Zvcm09InRyYW5zbGF0ZSgxNC45MDk4LC02LjQ1Njk4KSI+JiN4YTsJCQk8dGl0bGUgaWQ9InRpdGxlNTg3ODIiPlNoZWV0LjUyNjc8L3RpdGxlPiYjeGE7CQkJPGNpcmNsZSBpZD0iZWxsaXBzZTU4Nzg0IiBzdHlsZT0iZmlsbDojMDA2REQ2OyIgY3g9IjIuOTQiIGN5PSIzNi4wMiIgcj0iMi45MyIvPiYjeGE7CQk8L2c+JiN4YTsJCTxnIGlkPSJzaGFwZTUyNjgtMjIiIHRyYW5zZm9ybT0idHJhbnNsYXRlKDMuMDUyMzksLTE1LjM3OTQpIj4mI3hhOwkJCTx0aXRsZSBpZD0idGl0bGU1ODc4NyI+U2hlZXQuNTI2ODwvdGl0bGU+JiN4YTsJCQk8Y2lyY2xlIGlkPSJlbGxpcHNlNTg3ODkiIHN0eWxlPSJmaWxsOiMwMDZERDY7IiBjeD0iMi45NCIgY3k9IjM2LjAyIiByPSIyLjkzIi8+JiN4YTsJCTwvZz4mI3hhOwk8L2c+JiN4YTs8L2c+JiN4YTs8L3N2Zz4=;" parent="1" vertex="1">
          <mxGeometry x="375.5" y="227" width="38" height="37" as="geometry" />
        </mxCell>
        <mxCell id="SZY12_XKgGBlkoAp8IEY-15" style="edgeStyle=orthogonalEdgeStyle;rounded=0;orthogonalLoop=1;jettySize=auto;html=1;exitX=1.033;exitY=0.503;exitDx=0;exitDy=0;exitPerimeter=0;entryX=0;entryY=0.504;entryDx=0;entryDy=0;entryPerimeter=0;strokeColor=#808080;" parent="1" source="SZY12_XKgGBlkoAp8IEY-6" target="SZY12_XKgGBlkoAp8IEY-7" edge="1">
          <mxGeometry relative="1" as="geometry" />
        </mxCell>
        <mxCell id="SZY12_XKgGBlkoAp8IEY-16" style="edgeStyle=orthogonalEdgeStyle;rounded=0;orthogonalLoop=1;jettySize=auto;html=1;entryX=0.547;entryY=-0.025;entryDx=0;entryDy=0;entryPerimeter=0;exitX=0.495;exitY=1;exitDx=0;exitDy=0;exitPerimeter=0;strokeColor=#808080;" parent="1" source="SZY12_XKgGBlkoAp8IEY-6" target="SZY12_XKgGBlkoAp8IEY-8" edge="1">
          <mxGeometry relative="1" as="geometry">
            <mxPoint x="784.5" y="304" as="sourcePoint" />
            <Array as="points">
              <mxPoint x="764.5" y="344" />
              <mxPoint x="585.5" y="344" />
            </Array>
          </mxGeometry>
        </mxCell>
        <mxCell id="SZY12_XKgGBlkoAp8IEY-6" value="CosmosDB" style="aspect=fixed;html=1;perimeter=none;align=center;shadow=0;dashed=0;image;fontSize=12;image=img/lib/mscae/CosmosDB.svg;" parent="1" vertex="1">
          <mxGeometry x="739.5" y="220.5" width="50" height="50" as="geometry" />
        </mxCell>
        <mxCell id="SZY12_XKgGBlkoAp8IEY-7" value="Azure API App" style="aspect=fixed;html=1;perimeter=none;align=center;shadow=0;dashed=0;image;fontSize=12;image=img/lib/mscae/App_Service_API_Apps.svg;" parent="1" vertex="1">
          <mxGeometry x="934.5" y="224" width="50" height="43" as="geometry" />
        </mxCell>
        <mxCell id="SZY12_XKgGBlkoAp8IEY-17" style="edgeStyle=orthogonalEdgeStyle;rounded=0;orthogonalLoop=1;jettySize=auto;html=1;strokeColor=#808080;exitX=-0.019;exitY=0.49;exitDx=0;exitDy=0;exitPerimeter=0;" parent="1" source="SZY12_XKgGBlkoAp8IEY-8" target="SZY12_XKgGBlkoAp8IEY-5" edge="1">
          <mxGeometry relative="1" as="geometry" />
        </mxCell>
        <mxCell id="SZY12_XKgGBlkoAp8IEY-18" style="edgeStyle=elbowEdgeStyle;rounded=0;orthogonalLoop=1;jettySize=auto;html=1;entryX=0.006;entryY=0.451;entryDx=0;entryDy=0;strokeColor=#808080;entryPerimeter=0;elbow=vertical;exitX=1.011;exitY=0.448;exitDx=0;exitDy=0;exitPerimeter=0;" parent="1" source="SZY12_XKgGBlkoAp8IEY-8" edge="1">
          <mxGeometry relative="1" as="geometry">
            <mxPoint x="634.5" y="433" as="sourcePoint" />
            <Array as="points">
              <mxPoint x="674.5" y="433" />
            </Array>
            <mxPoint x="739.8" y="433.39300000000003" as="targetPoint" />
          </mxGeometry>
        </mxCell>
        <mxCell id="SZY12_XKgGBlkoAp8IEY-19" style="edgeStyle=orthogonalEdgeStyle;rounded=0;orthogonalLoop=1;jettySize=auto;html=1;entryX=0.389;entryY=0.014;entryDx=0;entryDy=0;entryPerimeter=0;exitX=0.487;exitY=1.009;exitDx=0;exitDy=0;exitPerimeter=0;strokeColor=#808080;" parent="1" source="SZY12_XKgGBlkoAp8IEY-8" target="SZY12_XKgGBlkoAp8IEY-10" edge="1">
          <mxGeometry relative="1" as="geometry">
            <mxPoint x="754.5" y="554" as="targetPoint" />
            <Array as="points">
              <mxPoint x="582.5" y="524" />
              <mxPoint x="758.5" y="524" />
            </Array>
          </mxGeometry>
        </mxCell>
        <mxCell id="SZY12_XKgGBlkoAp8IEY-8" value="Azure Function" style="aspect=fixed;html=1;perimeter=none;align=center;shadow=0;dashed=0;image;fontSize=12;image=img/lib/mscae/Functions.svg;" parent="1" vertex="1">
          <mxGeometry x="558.5" y="412.5" width="50" height="46" as="geometry" />
        </mxCell>
        <mxCell id="SZY12_XKgGBlkoAp8IEY-20" style="edgeStyle=elbowEdgeStyle;rounded=0;orthogonalLoop=1;jettySize=auto;html=1;entryX=-0.035;entryY=0.517;entryDx=0;entryDy=0;entryPerimeter=0;exitX=1.039;exitY=0.512;exitDx=0;exitDy=0;exitPerimeter=0;elbow=vertical;strokeColor=#808080;" parent="1" source="SZY12_XKgGBlkoAp8IEY-10" target="SZY12_XKgGBlkoAp8IEY-11" edge="1">
          <mxGeometry relative="1" as="geometry" />
        </mxCell>
        <mxCell id="SZY12_XKgGBlkoAp8IEY-10" value="SQL DW" style="aspect=fixed;html=1;perimeter=none;align=center;shadow=0;dashed=0;image;fontSize=12;image=img/lib/mscae/SQL_DataWarehouse.svg;" parent="1" vertex="1">
          <mxGeometry x="739.5" y="556.5" width="50" height="48.5" as="geometry" />
        </mxCell>
        <mxCell id="SZY12_XKgGBlkoAp8IEY-11" value="Power BI&lt;br&gt;Dashboard" style="shadow=0;dashed=0;html=1;strokeColor=none;labelPosition=center;verticalLabelPosition=bottom;verticalAlign=top;align=center;shape=mxgraph.mscae.cloud.power_bi_embedded;fillColor=#000000;pointerEvents=1;" parent="1" vertex="1">
          <mxGeometry x="937.5" y="555.75" width="47" height="50" as="geometry" />
        </mxCell>
        <mxCell id="MzijTNCAyTzIatsLZHs1-1" value="" style="shape=image;verticalLabelPosition=bottom;labelBackgroundColor=default;verticalAlign=top;aspect=fixed;imageAspect=0;image=data:image/png,iVBORw0KGgoAAAANSUhEUgAAAasAAADnCAYAAACg/HnOAAABXWlDQ1BJQ0MgUHJvZmlsZQAAKJF1kD9Lw2AQxp9oQ1GKdRB0UAwoTlFKLOjadqiCQ6gK6pamsRXS9CV/FDcH3Su6uEl18BPo4uA3qCI4iIib3cUOanm9NGpbxYO7+/Hw3HEc0BXRGDNDAIqWa2fSSWlldU0K1yCgDz0YwZimOyyhqgtkwXfvjPoduSluJ/1dp97N2+DoczVak0UlvS/+9XdEb85wdOoflHGd2S4gxIjVLZf5vEM8YNNRxIc+5wM+8zkb8GXTs5RJEV8T9+sFLUf8RCxn2/R8GxdNT/+6wb8+YljLi9SHKIcxBxUSFMxQTcGDjU0YyP0zE2/OpFACwzZ5N5BHAS7NJkhhMGlWwjws6JiC3Nwco4z7v/79w5ZWqgCzr0B3uaVlj4CLPTrzvqWNHwPRXeC8yjRb+/msUA8569NKwJEkID5y/jIBhA+ARpnz9wrnjRPa/wBcWZ/KyGR5UUYjzgAAAFZlWElmTU0AKgAAAAgAAYdpAAQAAAABAAAAGgAAAAAAA5KGAAcAAAASAAAARKACAAQAAAABAAABq6ADAAQAAAABAAAA5wAAAABBU0NJSQAAAFNjcmVlbnNob3Ra0MYEAAAB1mlUWHRYTUw6Y29tLmFkb2JlLnhtcAAAAAAAPHg6eG1wbWV0YSB4bWxuczp4PSJhZG9iZTpuczptZXRhLyIgeDp4bXB0az0iWE1QIENvcmUgNi4wLjAiPgogICA8cmRmOlJERiB4bWxuczpyZGY9Imh0dHA6Ly93d3cudzMub3JnLzE5OTkvMDIvMjItcmRmLXN5bnRheC1ucyMiPgogICAgICA8cmRmOkRlc2NyaXB0aW9uIHJkZjphYm91dD0iIgogICAgICAgICAgICB4bWxuczpleGlmPSJodHRwOi8vbnMuYWRvYmUuY29tL2V4aWYvMS4wLyI+CiAgICAgICAgIDxleGlmOlBpeGVsWURpbWVuc2lvbj4yMzE8L2V4aWY6UGl4ZWxZRGltZW5zaW9uPgogICAgICAgICA8ZXhpZjpQaXhlbFhEaW1lbnNpb24+NDI3PC9leGlmOlBpeGVsWERpbWVuc2lvbj4KICAgICAgICAgPGV4aWY6VXNlckNvbW1lbnQ+U2NyZWVuc2hvdDwvZXhpZjpVc2VyQ29tbWVudD4KICAgICAgPC9yZGY6RGVzY3JpcHRpb24+CiAgIDwvcmRmOlJERj4KPC94OnhtcG1ldGE+Cm4VR8oAAD83SURBVHgB7V0JmBTVtT49PRvbMMzADCA7iIqCiriBuKMxxhjXGPfEaMweYzR5MUZ9ic8kGjXGFcUVFaJRUQR3UTaVRTbZ12EdGGYfmGG2V3811V11+1Z3VXdVd9X0ud83X1XduutfNf3XOfeccwPtSiJOjAAjwAgwAoyAhxHI8vDYeGiMACPACDACjICKAJMVvwiMACPACDACnkeAycrzj4gHyAgwAowAI8Bkxe8AI8AIMAKMgOcRYLLy/CPiATICjAAjwAgwWfE7wAgwAowAI+B5BJisPP+IeICMACPACDACTFb8DjACjAAjwAh4HgEmK88/Ih4gI8AIMAKMAJMVvwOMACPACDACnkeAycrzj4gHyAgwAowAI8Bkxe8AI8AIMAKMgOcRYLLy/CPiATICjAAjwAgwWfE7wAgwAowAI+B5BJisPP+IeICMACPACDACTFb8DjACjAAjwAh4HgEmK88/Ih4gI8AIMAKMAJMVvwOMACPACDACnkeAycrzj4gHyAgwAowAI8Bkxe8AI8AIMAKMgOcRYLLy/CPiATICjAAjwAgwWfE7wAgwAowAI+B5BJisPP+IeICMACPACDACTFb8DjACjAAjwAh4HgEmK88/Ih4gI8AIMAKMAJMVvwOMACPACDACnkeAycrzj4gHyAgwAowAI8Bkxe8AI8AIMAKMgOcRYLLy/CPiATICjAAjwAgwWfE7wAgwAowAI+B5BJisPP+IeICMACPACDACTFb8DjACjAAjwAh4HgEmK88/Ih4gI8AIMAKMAJMVvwOMACPACDACnkeAycrzj4gHyAgwAowAI8Bkxe8AI8AIMAKMgOcRYLLy/CPiATICjAAjwAgwWfE7wAgwAowAI+B5BJisPP+IeICMACPACDACTFb8DjACjAAjwAh4HgEmK88/Ih4gI8AIMAKMQDZDkBgCWzbtoi2bdtKRo4bSutVbw43sragNn1s5Ke5ZoBYr6tk9XHz44f3C53zCCDACjAAjQBRoVxIDERsBjZhQ6vNPlxgKH3vc4YZrJy6Kigto9AnDKSsrJPgGAgHlPPTnRPvcBiPACDACfkOAJSuTJ/b5J1/Tls2QnnaZlCA6fMQg03tJ3QiEare1tYWbaW0NnYLAmLzCsPAJI8AIZAgCTFYHHzTICUmUnA7elh46dcpX84sOqvJwUVTUTVpWlgnS2bs3pDastKg+1AgM5KVJXsFglip5yfrgPEaAEWAEOgICGa8GBEnZIajxpx+tPvcBg0po4KBS196BtvYsam9rpzaLWlqWuFx7FNwwI8AIeACBjCQrq1LUwEG9acBBQhp/+si0PS6Nr9raQvrBeAQG4mJpK22PiztmBBgBFxDIKLKysg6lEVQi5NTUcoCqKhssP6YeRV3UsnnZuZbroCDIKxDIotbW2JIXk5YtWLkwI8AIeBiBjCArK6o+qPesEVQW7dq9l6r319CW9bvVR1vXVEddWiOm54k+76zObdStMJ+wBtZ/YG/qQqE1sVjtWSWuYDBI2dnsVhcLS77HCDAC3kWgQxtYxCOp0PpTu0JSo0yf0L7G/fT5rKVUUV1Bq1ZvVMudctzYg+VDP/5dKHmiQoNt+7KoZt8BovwaGtoyiJqVvPqsOlJoRlXrtVELdWsPSWMHB6BIWGpN5b5icKFIXFAVytSErYpFBrwUWD2oIcdHRoAR8BMCHZKsNL8oM8OJeFLUHoWY3n/vC9pSXkaBqpDTLh5qFyqi3oN6uP58exYWhfvo2nbQulC1Ys+jKoW8aoM11JN6UZf2vHA5nIC4gkGFkJRzGGi0tkZM33EfloT4Y/Ug0ODECDACfkKgw5FVLGkqNkll0eQpbxsIKkARotIeaqAr5B13UzbEJJME8tIIrDZrP1UF9yoU2iNK4soKKKSkPF0mLRMgOZsRYAR8hUCHIatESUqTospWV6sPTkZQ2hNtoErqned8xAqtfe3Yvbs1X61ObZ2oU1soNBOICyo+UdqyQlq8nqUhz0dGgBHwKgIdgqzMiCqWJPWeouZbtGaxQc0X7yENO2pAvCJpuw/iIkXrB9JqCu6nXu0RVSIGFYu0eD0rbY+NO2YEGAGLCPiarMxICnM3I6o33vqEPl86m0rah1IsKUqGX6d8xTovBZEUs3JkvVvLC0lbndS1rZZgs5S0AoqWUTTE0NazcnKyORqGNai5FCPACKQQAd+SlRlRWSGpEhpqG2KoALu3u68CVAcGI0OjbYTt8arrWkobMMgQSUszxAhIjDCam1sUdSKbudsGnCswAoyAqwj4kqxkRAVn3lOUKBNiCCSsSU184T+qui8RktLQT6UKUDOg0PpO5qiRlmxNC6pBmZSlqQVzcswNPZIZE9dlBBgBRsAuAr4iK5ikf/6pEg1diIQul6ZC1n0wnLCr7pOBGMg5GApddtMHefo1rUBQcT4+6K9lJmVBLdisGD6yX5YPHi4PkRHIAAR8Q1YgqJeenRn1SGREtWrLGnrq+SnqulRUhQQyGrNrqTQrNSrApjzr4ZoSmIpiPRgyxNiTU2lYz9KkrJaDW5GgbV7HSgRhrsMIMAJuIOALspKp/QDGVddPiFL7TZ4ynSBNJaPyE4EefHhfMcu16+Ieha61rW+4sLlItRwMBBEVI2QqDylLsa9QnImNUTB4HUuPHJ8zAoxAOhDwPFnJiArrU1ddf7YBL3Vt6slpFGg0RnUwFErwoltn5cdcJ3Ek2Iylas05jZbKOVEIUlY91dGeoFHKQhQM0fgC61hIHF/QCeS5DUaAEbCLgKfJSkZUMrXf7C8X0uyZq5W1KeeJCirALq2pUQHi4eXnKObxKUyaAUZNsJ66B7qGe4ZakBQnY33IJiasMDx8wggwAilGwLNkZZWo4De1eskO12AbPKS/7bb3B+vUOp1arUWi0HcQTJMFXufWrrRbkbBKAhFnYpWwsgLUqmwCqSUmLA0JPjICjEAqEfAkWVklqkefeZlqt0V+SN0Arl7Z/oO69YnbdIMSXLaxvplWrVyrBrxFhexurTRy+JFx6+oL9OjiTAR3fZtWz3u0htaxCrIQ2T3k6JWFUO6KzMqEZRVFLscIMAJuIOA5srJKVPf+63FboZISBa+pRvnR7mleGyRVWVVNFev2q4UQmV1LLXVBWrJ5ER0z6DgtK+4xt1t6HwnWsaqohrIVFaBm3g7CwmaPLboo7ixhxX2UXIARYAQcRCC9v4zCREJ+VEsMueIaFfaXuvdvT4elF0NhFy4OKPFt9+6voOJORsYSScqs6/a9XWjfwHrqrFsPMivrlXysY8HwoiHYFA6MG1DWsIKsEvTKI+JxMAIZh4BnyErmR5VuotLehrKVFVTWdQcNHt6HWttbqam+hcrX1Wu34x6zc5X4SRZ3FumWEzFyiNuwiwU0wwu9PxarBF0EnJtmBBiBmAh4hqwQmUKfnCSq6sY9atOdO3Wh5vbGxKSy+lzatHivfoiWzhFTMLfZujVhMkFsLQ3IZiH4Y0URlqISFK0E2aTdJrBcnBFgBGwhENqX3VYV5wsjMoU+hBL8qMYrcf4iKYseevgVWySzuWE5NbRU0+7yajpQk6P+Ve86QNu37qF9rbWRpl0+66Hb9ddSV554IsaRqoQVqAxnwkoQYZj0qbk5RY5o+k75nBFgBDIGAeMvThqmDYMKkahEh997//WoZWff7Q0bqKp5F3Wu708NEkGoMLeU6itClm6pmG5xP2+o9ZKdKwirLhAJBQXCykLIi4MJoZlaWlKHq9YvHxkBRiAzEEirGlBmUIHI6foE8/RAVfT28voyON9Tv4Pacw5QTn2xpeUhSF1dst0PbZSfa89RWV0rEifnkWvVGlD3eYNIF20tkcGxhWAECz5jBBgBZxHQ/fQ427CV1mTrVPotPuDwG8+PCiS1YMPn1N7QmajaOvlU1UvELiuDtlkmJzvXZg3vFgeR7m6PqAMxUkEbqKxlsTrQu0+QR8YI+BeBtElWovpPNKhACKVYkSlAUlVVdQS13sCuozz5BGBcYTdUU21rHRUEu8Wcz6bqLVRVWUdwIO5VWkhdKXb5mI3ZvAnHYX1opiz1c8foNAx1IBtc2ASWizMCjEBMBNJCVqL6TzSoqKipVGP9yUauqvsgRVFnhahw9G4qLelte3B7K6qpoFROPpvKt9KGxeXhNiupkTZQOZ1w5mFUkCevEy7s4AlCMxkJS4lyobMQ1KQrJiwHQeemGIEMRyAtZCXuSyWuUz31xJtRQWmxxhQymHCGoLrmx18HS/bd6FZiXwUIMmoYsY8GDQ5tS1LTWE8HqloMJCWOa82aLXT8qKPEbFevQVh1OQ2RKBeKwYVeAQjCYrJy9RFw44xARiGQcrKC+k+foP7Tr1NhPyr9Nh8RktLXSv68VYnO4HYqzFdCLyUQunDXyjratXKN5eHt2KVIWykmKwxuf1sTdQsgjmAoiREuWB2oIcNHRoARSBaBlJJVPPXfsm/WqRsnYlJukZQGWH6eshWHy5bW+e3OSIHamM2Opb2MoaDMyjmdH71+xepApzHm9hgBRiCEQErJSrT+E9V/U19Ttq1vyZL6Rzn9wNqblakHnW410l6udcPESKUEz4IOcyIMOFqqlJiI1dWEzSCPPmwEFeTI18RYHZjgQ+NqjAAjYAuBlJEVpCr8aQlGFXr13xvT36eG8rRa0mtDc+RYXJK6rT569yxJeswgqPJN1VS/SwxiGKSvtq6hI07pS4d0C62jiZ0p/sDYRSScOrI6sLa2lmbOnKn+bdy4kbZv30579uyhPn360JFHHknDhw9X/8aPH0+HHnpoGJNYJ2vWrKGtW7caiqCdAQMGGPLiXaxevZq2bdtmKFZcXEzHHnusIa+9vZ0+/vhjQ57Vi5ycHDrkkENo8ODBShQTa197CxcupGrlw8duQvsY/2GHHUZ5edb8FauqqmjRokV2u4pZfsyYMVRYGPn6/OSTTwhO8PpUVFREo0eP1mfFPDd7Bqeffrqy1ptN+/bto3nz5sVsI9GbXbt2pZNOOsm0Ovp+/fXXacmSJbR+/XrC+7lz5071HT/iiCNo2LBh6t/3vvc96t3bvhGZacdxbgQU0BJYVYnTquS2GFLpqusnhMnqy69W0KvPzZLUci+rS2mbrfBNdkcyeHQxFQZ62a2WUPkjTjuEDukcf88tsXFzghJLEnUfkkPHH3Z09I2DOfuEnYabdc7CKJKXl2Na1w83QEh/+tOfaOLEiZaH+6Mf/Yj++Mc/0tChQ2PW+f3vf0//+Mc/DGXOO+88mjFjhiEv3sVvf/tbeuihhwzFzj//fJo+fbohL2T8kvx36rhx4+jCCy+kn//859S5s7l4f9ZZZxF+4JNJo0aNojPPPJNuu+026ttX/tGE9ufMmUP4UHAyffnll3TCCSeEmwzoIreEM5WTdevWqT/i+jyz85aWFgLxi6myspJ69OihtoUPFjcSsFy6dGlU0xUVFfTUU0/R3//+d6qrC20gG1VIyLj99tvplltuSQlppUSUEaUq0ajijdc/FSBw/1K/75QbvaXSGbhpr/Erz2w+9Vl1BIL64uul9NHMhbRh/h6JJGVWO3Z+m/DNA+lKn2Bs4df04osvqoRjh6gw12effVb98cKPeVOTPYMe8cvdi9jNnTuX8GMFKevNN990dYjLli2jhx9+WJXq/vrXv0ZJNq52brHxn/3sZxZLeq/YqlWraMiQIeoHmVWiwizwkQWtwuTJk12fVErISr9WVVRcYAhSC6mqqc74w+b2rKsPRHyV3Ogr5AycOjXgxhU7afu+ndKpwMkYBPXuJ5/RF++ucZSg9B0iukVNe2TblNB2IpESmu9VJMcfZ/feey9dd911lr80ZbN6/PHH6eabb6YUKTFkQ3A1b/fu3XTxxRcTJJBUpDvvvJP+9a9/paIrW318+OGHNGXKFFt1vFAYqmOoH+2QlDjua665hmbPni1mO3qdvC4gznA0qapnr0JauWIzff+qsww1Jk+eodg5mKsQDIUduigq6OFQS/JmEnEGlrdkPXfVZ9upakQtDVBUJHXNim9WXQut/GYj5TWFTMvzFKWn2wnGFpSN75+QFOX3tat//vOf6pemGW5Qg2E9qGfPnuqa0zfffENffPGFtPjzzz+vSll33HGH9H5HyLz00ktpxYoV1L27+x9qUHmedtppttaJEsXYTO0na+/Xv/41nXvuuaoqT3bfC3lYE9NSY2OjOl58cMjShAkT1He8S5cu6noo1rEWLFggK0pQOeM+JDQ3UmTUbrSutDlv9nJ1mw5s1YHU3h5RB0GqCjanlqgwhrY2d5fpEnEGxriSTaJ/VioIShxzTXsddT/oewXpqjXyuNW4gX5xFIbhxO9+9ztxeuo1foweffRR6foEFqOxrvLOO+9E1cWaFxbhsR7lxfTEE0+oPziysUEqhHHJjh07aOrUqaqKUyyHL/RXXnmFfvrTn4q3oq7xJQ6p1SxhkR/rhO+//74qRcm++v/2t7/Rf/7zH7MmDPlQ4eqNJAw3Y1zk5ubScccdF6OE8RZ+9PGcH3vsMeMNm1cwXIg3N3wYPfjgg1Etx6sHgxUt4T1duXKldhk+Yt0PUqJsffCrr74ifCxADaxPeEbIf+utt/TZjp27Slbr1myj+XNWhAc7bHg/Gjb8kPB1OqQqdH4gAHVVaXgcTp8k6gzs9DjS0V7nVkWC6wDSFX5wZOnKK6+k5557jvAjJkv4IXj77bfVRWessYgJEpZXyWrgwIHUv39/cciG66OOOorOOecc+ta3vkWXX3654R4usLZkJcGiMF5fwPKUU06ha6+9ViUMkbDsWP19//vfp4IC96PWYO5Q+2LMJ554ohUopGW6detGl112mfSelgkJSUZW8epp9XF844039Jfqeb9+/dSPhE6dOkXdQwaMTfCOH3/88QSLWH2aNm0awVAD2gank6trVjPfMapEvnX+8eHxp0uqwgCCOa5yNKXKGTgMpsdOIF1pyY9rV/gRBKmICQvoMLYwIyp9eSw8y6zS8NVr19hC365XzvGDKCNdOwRidS5wAfjzn/8cVRw/lJD2vJhuuukmZX83wSTWgwPdsGFD1Ki++93vkhlRaYVhqn///fdrl4bj8uXLDddOXbhKVuvXbg2PUyZVhW+m+CQ3N+haj6l0BnZtEkk2rEpXujZEy0C31bC6rm2fQt0FU1wx4UsXBGTVtwhmybIfWLTr9kK0OHa3rvFlLSb4ermRjjnmGGmzUEt6MUHC/Pe//+3FoRnGtHfvXsM1Lqz6tJ188slRdZGxa1fEn1ZaIMFM18gKKkB98opUhTGpoZb0g3PwPJXOwA4O2/GmqmNYBnqZrPBVKCOTX/ziF4RFZjvpjDPOIKhUxJQqqzmxX6evZWo1OEa7kWR9oZ94qkQ3xiJrE8YFYsL6TVlZmZjtqWuZ4/kzzzxjiXBgsv7aa6+p65RYq9T+ZFg4MWnX9GGiClC/VvXe9NSYuJoB5GaopfyurkFqNh1P5qtm2jqPhKCyS2PrQWsLL0dklxEVALZiNCA+CEhhsh8rO9ZlYpteukZ0AzHZieIg1o11La6NoCyszux+QMTqI5l7//d//6dayYlWdb/5zW+k60LJ9OVkXTgez5o1y9Ak1gaPPvpogj/b9ddfL3Ve1irAAjRVyRXJClKVqALUT6hqz379ZYc6z6b8DjWfRCcDv6s9gcpIdcFp2KtOwp999llkzAfPYKKe6Bc8iEn8i+rAhxkg4SeffDJq5CNHjozKSzYDaz+y9RGEQfJKgqUhDCvEBGdpmWWoWC5d1/AhlCWQLtbd8EHwhz/8gT766CNqaGiQFU1ZXkrEAL0KcMYHs1I2ObOO2si9hc+uAXnAV7OxdOT83DYlnttB6Uo0Y/fqvGULzlZj/Hl1Tk6PC342cHIWE9b1nP7ShgsBomQsXrxY7E4N8xSVaZJx9tlnWzKMEavD6g3GBFbSJZdcopr+v/vuu4biMMyBShgx+byWxo4dq/pZwUVAluCOgPBL+ENCyCu4bsCJGFK03mdLVt/JPFfISq8CFA0rZk7/KuVOwCJgWeTKtMVuXL9uCNZQTlYO5abBV83K5EJm7JGSflAFioFgMXqEE8qEBIOAWFIAFs7hRybzywE+kyZNsmyyjLiHNTU1prDiHmLtmTmgggBOPfVU0/riDbN2xHLidXOzGNhZLGG8fuSRR0gkK7xTf/nLX8I/+MYa6b+C3xwikFiJ34gyWjl8nMCFAeHE4KDtdnL8V1tUAeonUNdQnxYnYP0YcB5w0ScYBNKl1X0P/vUVa6luS8jjFuGdhg0fTL272Q9mK2Lj9DVUgb3aD36ZSlSBXnMSFtccgEeiKkCnsXS7PUSTTzTBCdaOfw+s5az6ZIljuvHGG6VqQbFcOq6hNoMUguDE+gRL0quuuooQRNZrCRFH8PEA61U4hov+bGbjRTkYWOAPbhpQC48YMcKseNL5rqxZ6UelVwHOnrtQfytt5w2KtWZ502ZX+t9XZy9gaSKD2FW3M0xUqI+gvDvX1tCO2m2JNOdqHVUVeLAH0efK1Y4dbLwj+EU5CEdUU4gkkaogrhdddBFBeokV5T1qgCnOgFGFLGL6T37yEzWKS4qHY6k7mKuDZOEKAAkZ67R2EgyTsO0Iwm25lRyXrPQqQAxabwX42UdwFtOZiFmY1fIVy6h6VyXV1TdT30N6UImyD1bfXtHmwBaaMhQJVBdSVfEuylN2LmwPtFB9Uy11DRZSoxIde78SW6+kRx/KTWCn322rKilndMCwPcj+YMhJtlNr8utZICoQkyztriynvgXJYyNrO9E8URWYpURj10zXvWgViC9j0fJs8+bNiU4/I+phAR5SEqLMW/XRSRQYGCwgMgTUlTKza7N2YUhgxZlbrJ+fb99gCv3gB190Ckd4JOTDcMGrCetq2NoGf9gbDCGVoPbDmpaZ+lebCyQtbAeDdV831uccJ6tYVoB2oqvvqthMqz5bQ7sbQ6ouALJm7R71b8TRlTTyqOTF6ea9+dSsBl3NUii0kEK2LnmUS3kKQR6gA3k7qV/hUO1ZWD5uWryXGrM3UX5LgaEO1HVHjT7UQGSGAnEu9u6vMCWqOFXTersu0EDd2kM+SvY+VVI/7JKSkiiy2rRpU8IDgVR24MABQ30sSseLEIDYeHYTgpImkxBKSh83Tt8WQuggUC++nGWqUvjYIKivWTxFfVs4x1e4LAIG7mHu+GFEf+KHA+6DGGHgYWe/L0hjZr5aaNPphDBRN9xwg0pO+raBDyJEuBGOSN+PE+fYV+s73/mO+of2IHWBtBBSCX+yhHcDe2LdeuutsttJ5TlKVtGOwCeEB4fwSlYTQrasXy2PAow2Vi7dTiOO6UfBFmtWOlb7FcvlNhVTQ0s1dckuFG/FvRaJChWgrgORHX5CPtmVskBUZSsr4vbrxQL6nYQDwoJhi7LPlZfWrWB6LUZORyTpRBNixImBRX/5y1+qqqxYbcYyPjCrV19fb3bLUv7VV19tSiBaA9hnC/43d911l5YVPiKAL0jEylc1rMnMInyEG1ROIEFhrUdcR8H6GlRPovSir5vucy3Qrn7sOAdOiC/pt4Sgtj/84Q/VP0hdiPTywgsvRE0DMTHdICuX16wilgxffLU0alJiBqSp6VPfi0lUWp3Ppy7QTl09Yn0LEpGTqaba3o+KVaLqXWy+g2qy4w80Jv5d00SRdTyTTVaTHZ5j9WVWTWvXrk14i3HR4RID1e86i2uZYyt2jLWbZFvHy9q2266+fFZWlkoyDzzwgD47fA4LPifTBRdcoPr4yNpM5iNC1p7TeZCeEJ1fTNioEH5L6U5YQ9MkJ+0IU30rCVIX4mfKXBhg/ehGzEZHySrWetX6tdtjYoC1qc/eX6VIMhGCi1XBarlYbVi9p0VesFreyXJWicrJPp1uq0erUQLGupWWvLYhoZk5dCKb/SHCg0xlBhWYPslUQviH37lTvqGmvq52DsdZGTGWlpZqRRw9IrKBLMmiWsjK2ckDucsiY7gVh9DO2OKVhbQqk/5g0ZjuhPcFZvbin51xmTkVyyK32GlXVtZRstJ3AP8qfaprCBkZ6PNwXtWymT6ePkNV7Yn3Yl2nkqxijSOhe7mtlqrZJiqL7VrqXChUWV0r5Ni7xLqVliJUhb3FImuS2v10HmGmjrUGMUGVZ9fQQrZfE9bEhg0bZmge22XIkpmjpqws9hjSq5u0MmZta/cTPRYXF9OFF14YVT2Z9b2oxnQZUKeKSebALZZJ9zUkUVmkD5k/X6rHOnRo9Hq8qAKPNyYzp2CnJXqMw1GyMhhXHBr5B9y5p5wKc6O/8CBNfTB1FVXU6H++4sETut8l234day27X0rd7ypON7aJKk57yd7O2pdDuxrLE26mNcaGl5p1YMKNO1zxf//3f6Ut4sfZakRpWFFBTSImRAAQk5mZMML3WDG0gFWlWYRvrA25lWA5KSYYYriRsNeWmOxInmLdVF7D9+jOO+9MZZeW+pJFzYfxCiwurSZxA0atHjaPdDplOdWgaFwxbHhk/eTrr1cZuqk+UE6zP5plW5rSN9Ie9NYXuX5s8c6z4iz/JEpUOS7v07Xi061Us88oITcoElM9GfNk81ci5IWzRX8rr5EVFpIRmFRM+EcGscRTdc2ZM0eNCCDWxzVCB4kJakAZqSDqAiIEyCQmrQ2o/yAJYldXMUGKs7PLrVg/3rUsDJFVMo/Xtng/lX2JfTtxDfN+WQR+J9pOtA2Eh5IlRLOQhbcSy65atYrgUyYmkGA8a1exjpXrOD+bVpqIX2adbr0K0hSs+ZJNweycZJtIW/3WNnM1YKJEhcl0CnR1fU4LFHcCpKa8BnVzOS1aR17/Vhp/1Imm/YeMLELm66aFPHTj17/+tRqYVFTXwJQa6yf33XefulNur1691FGDNBCKCOpCM8kMdWDeLUuQjGRBYDVnS/wogNDQH1RL2IcIW43ATFi2VoU+4PdkpqaRjcFunoxAZGt0dtuVlZdtSY++oEYGHvESjAmwx1giCfEOYW6eTIIT88SJE+nb3/52Ms04WhfRNBB1BBEoxISPHKxHweIP275o7xHWmGHC/vTTT9M999wjVlOvZUYX0oI2Mx0jK70KEGPQOwPvKINlU4DimaTbGTschP2atpfvpGE9ox2EkyEqYJGdq/zTNqcGlbymLoo3WiQ1bQ3SuuJNdGifwZFM3ZlqZOHY26Zr2KVT/LjAvHjChAlRPUDSwf5W+IP0AskonsMkJLJYPkjYLv6hhx6SbvyItu06kuIHw619hTRAZH5LW7du1W47ekQcOlmC1aTMQEUsK5M8xTJm10cccUTSZIW24Vd2+eWXR7kymPWbinw4KcOfTfb+wixdM02HyhcO0rJy+nFCWpOtL+rLJHoe/5PEYsvr1phLS9XleyybpFvsjgpL3JcirI7FbjnE9ENsP8QR1FKyRIV2mttSxFTaoIXjliV7qT4rvkoQ1bJ0NuxeswjUpoVI3Z9++ql2KT3i6z7ePzBC7+CfXvs6lTakZP7qV79So1qb3beajx8W2ZYaVutbLSdbRAcW8MFxOsn6Qh9+28gSHyReSvgIgIOv2ceANlZoFOK95/iwg1l+vPdca9Pu0TGy0ncsWgJ+/M5iyybp+nZinQfzOse67fl7IKyvv/qG5i/9ir5etNoRh19NJefVyRssAnXm616zCNTjB9Ub/kllhhH6cmbnd999Ny1dupRklldiHaiz4AQrsyIUy5pdQ12IH3ArjrlmbVjNhzQoS7Eit8vKW8mD9AQpVkyvv/66mOXpa6yHynyv0jloWKdClSzTIlgdF4yP3njjDVX6slrHbjlXyMo4iCzHiQrtl/b1rxpQwwcRLWSRLrT7do5OOy7b6VtfFpsumqVGnXMwCRHYzep4IR9qIDhx4ofR6j80SA6hiRDpwU58Oagf//jHP6o+VnZ0/wjwCr8jfLnHU4s5tVMx9vmSRdkWydaJxXYQOSJZiAkWl3qrwETi/4ltiteiujOeFCLWF6+xfibzG0M5O7EVZeOQ5Yn9y64xng8++IDmz59vS32MaCwwtHjrrbdc/0AKKCoYa164shnq8n51U0S8PePsY+nCS8apd+tr99Gh/S7TlXTm9NzLRkvN4Z1p3dhKfs8WKgj2NGZ67Koxu5ZOPjoS3iodw4Na88JzzjLtujonsl1IW1uANHP2ebOX0xlnjzat57Ube/bsUb9EsT4D6zdc4wcNxg/4SgVROWW6C9N1+C7hD35FsESEMQdUfZDW8Ddo0CDCNg+cGAGnEMAHwJYtW1TfQrx7iHGJ9UFYNCKAMPwRYXghM3xxagxiO44uea/d/SUtWr6A2vKvCpOV2KET1/CxkvltOdG2X9so6FqQ9qHH01XntuWGg+6Hvu7bab5CVHM/W0pDhvalgYOd981wAxSQkp29m5IZAyQt/CjgjxMjkCoE+vTpQ/gTo62kqn9ZP46R1YJ1H9O6ciVen95ETOnxy/nfyPpNKi8rL5hU/Y5Y2Q31h12cinvYC/gLopqjEBUnRoARYATiIeDYmpVKVPF6c+i+n83WHYIgqplAp5aovFRnKFuDWU5lW3YxUVlGiwsyAoyAY2SVSig7F0WiIaSy347YFzaG1DaHTHZ+wRyWeJPFkOszAoyAHAHH1IDy5t3JDXbq5E7DGdRqQ3MDrdu+mtr3RqJKDBjRk4o7JW5I0qvAGF1dhHNnWQV1H+hf/zhxPnzNCDACqUPAFbLaWr7R1Rl0ykm/MYGrE0yg8fp6xRk3Ds/AWq+yqpoq1u0/2EOEqJCBzR07n5Bne2NIbbhZnc0l3uXr1tBmxXH88IGDtOJ8ZAQYAUbAMgL+VAN2TyzGl2VUfFgQEhKiYMgS1HzrylfT2q926ohKVpIIoaASTd1y5FLT4lUr6L0UbZaZ6Ni5HiPACHgbAcckq0BTV2rPq3d9tmy2bg4xJKPm4c2U0yWgBrVt2L+Ptu/ealD1mdd2586Lb71G5SsiOwW70wu3yggwAh0dAcfIygyoE09m/xAzbNzI37lWizdYfbB5o6rPjT61NrPgtnBw55batlp67MEplN0YMRHs1YfVtxpWfGQEGAF7CLhOVvaGw6XTjUB7a+L7hGmhltbuXE/TJn1B2RQhqnTPi/tnBBgBfyPguzUrbGe/pX6Zv1HvwKOHIQWISpa6d42EBCrbbNx12C/RK2Tz4jxGgBFwHwHHJKv+pUOorDpEIlvLjD9ETk+jdrPS4lFOt5re9mpbKyjYnk1V9XvVgdS3VlLfwsGej0mooQZLw+mff0KrPt+hZUUdhw3tF5XHGYwAI8AIWEHAMbLSd1bTFCGrrgXOq4Kw03B7oIVGHWke/PTAwX2VcmNEAdePOR3n25tXU2GgN23fWR6OdZhLxepQipRjo2Lc19RzI/UKDknZ8A7ARqbUXncgqnUb1tsy5NBLVixV2cObSzMCmYiAY2TVf0CpIlmFIKytaTBgCQs+qO+cTKuWlFPbvoVUMqg3dVZM2RHYtvpAOW1dW04Va3aq/aFP9I1Ygid/51DqkT3IySEk1JaRoHoTkIoVlLdqRzP16p9QVympBLP4ZYvXWNrqpHM+O3On5KFwJ4xAB0TAMbIaUDKU5tKHKkSiCfuY44+gz+avdBy+NWv3EP5iJZUklS0V5v53NZ13VQEFW2JHWYjVVqL37BKUvh+VhBv3UGF+L322J873tu2iskXVlE/xrfzE/ba2bN7liTnwIBgBRsAfCLhmYDFvdsQIoqjEXjRuN6ADaX2eQsfU7Q0bFOmumtZuXUM5lYoEpSxFxZKg3Jizm23CAbnsa808Pn5PRQUh9aas5EBFOubECDACjEAsBBwjqysuu9jQz5Q3poWvb/7598Ln6TzZ3dhGVS2bbQ8Bhg9WkkZQu8urKae+2DGCag2mzqm2tr427lR31e1UQzPFLagrMPzoyELYlihLwD66knzKCDACjEA0Ao6R1bjxRxOiWGhJHx9wyIjBWnbaj5W799keA6SiakUVJ0sygpKVSyavW27qVZdm412yeRFFHI/NSkXnD+w9UJdpHkNQV4hPGQFGgBEII2BNZAgXj31iZr4Oi0A3jCxij8bZuwdqcqiiaTc1Z++n/NzQDpPNlfmUo1jtNbgcZaq5vZFyU+Rgm99SQJCcenczSjswpFiyeJUlQwoZ8nqz9TmzIipilGVrQBlinMcIMAJ6BJwlK51F4NbdxsjrbhlZ6Cdj5Tw3KyL9WSmvL9PWmEtBhTaa9ZkpOO9CqZWsIDmV5e+gAQP6EuW2Ul11PdVvI0uGFDI4YFxhZgnIRCVDjPMYAUZARMBRsoplEegFIwtMvmdJfMs1EaS0Xuembr1KP8+cxi4Jqfv0bWjnonGF3hLQb8YVjY2NNGfOHG1q4WOfPn3oyCPtxcHcsGEDbdq0KdyGlZOsrCwqKChQ++pkcV83WT+DBw+moUOHWumSyzACnkDAUbKCkcWrHz0ZnthFV/6Q3nzlOfX6rvtuojenzQvfS9dJMFvZzTbx8HepH/aBkMrRasd7mxUR6EAO7a2spsKuhVRY1I1y2513zLY6HpTrSMYV06ZNoyuuuCJq+kOGDKF169YRyMRqmjp1Kt1xxx1Wi0eVGzduHJ1yyil09dVX01FHmYd0kfVz0kkn0fz586Pa5AxGwKsIWP/PsjAD0chCX6W0X6m6bqXPS8e5lyNamOGxp948hJFWRzOTb63sSq31eSEzeYXoqncdUE3otXLpOB7Wf3i42zmzlofPceI3NeCkSZMM49cuNm7cKJW4tPtuHOfOnUt///vfaeTIkXTrrbdSi+JPaDW1trZaLcrlGAFPIOAoWWFGY48/OTyxuctDTsKhjDbCulU6E4w8/JjaGzpTedNm6dBBUjCVj+XHhXubG4wkIW3MhUysVw0fPkDast+ICiq7Dz/Uv9PGaT33XEiLYMxNzdWDDz5IV155JbW1+UltkBpsuJeOgYDjZIV1K32aOGly+PJfk24Pn6fjpD3o33/kQHUh7azcSVDz4U9PUlaw7JWXnphNRxw+JDw8+Ffp16vCN3xy8vLLL8cc6fPPP0/V1dYdpWM2lsDN1157jaZPn55ATa7CCHgfAcfJ6t+P3GOY9cyPPw5fp1sVGMzOCY/FjyfB5k6kqvkUVR+kJTupoS49hhqjRh6mG6ZRsj31jGN197x9CrXZU089FXeQ//3vf+OWiVUAa19lZWXSP0h2CxYsoBdffJFGjRolbeaee+6h9vZ26T3OZAT8jIDjZAUwBhRG/pHmzdH71KRXFdj3kB5+flZJjf1AwGVnMMnooAIcdeSh4Tt+9q+aNWsWbdumGK/oUrdu3XRXoVMrhBZVSZdRXFxM/fv3l/4NGjSIxowZQ9dccw19/fXXdMEFF+hqhk4XL15MGCsnRqCjIeAKWY0bMzaMU3v3ctLHCUynKvBA+4HwuDLtpEuX1G1vr2F70vgR2qmi/jOqAP22XgUVn5heeOEFKikpMWRD8lm+3P31QVgdPvvss4a+tYtvvvlGO+UjI9BhEHCFrERV4P1PPBQGDKrAknxXug33YXZSUppa51qzcaQjP9CqmOynOJ08ZrSuR/+qACsrK2ny5MjaKyYFqeq8886jG264QTfH0OlLL70UledGRs+ePaXqQFgmcmIEOhoCrrHGuFETwliJVoHjzj0pfC+VJ605/jWwSBanVAbDxVjb85uoZ/fIx4GfVYAwXBDTD37wA8rPz6fLLrtMvEVPPvkkNTWlZo1w4MCBUf1v3749Ko8zGAG/I+AaWZ0y8hwDNnAQ1hIchNORkgm1lI7xOtlnfl6+k83FbeuCC04Nl/G7CnDixInhuWgnmmPwscceq5jmD9ey1WNdXR3NmDHDkOfWhUzlV1oaiXDvVr/cLiOQagRcI6vb7riWAjWRf5qtZZGt7kv79aJRw1K/h1FpX/cNLLBbMf68ltqbs1M2pGjDCuMajp+sAJcuXUowWtAnrFONHz8+nHXttdeGz7UTM+dh7b4Tx/Xr15NM5QeLQk6MQEdDwDWyAlBjx0esAstqlhkMLV58+28px3Jfo/3tQawMsjW7kubPm09TX55J77+2WP2bPvU92rxltZXqHa7Mt86LGNhgcnrfKhhW+Mm4AkYUYrruuusoOztC/pdeeqlYhN59990o68GoQklkVFVV0fnnny9tYcSIiGGLtABnMgI+RMBVshJVgUZDi9RKV4he4cZOvctXLKPXX/iSyjYZnUGxM/GXczYR7nshtZH1UDzJjBdS1fgTx4SbmC2EV/KTVIWgtc8880x4LtrJ5Zdfrp2qx8MOO4xGj9Ybk4Rui0YZhkomF1jr2rFjh/QP/lfz5s2j++67j7BWtXbt2qhWoJI866yzovI5gxHwOwKRz0MXZgJV4JzlH9DcZaEQNUZDCyJIV8eMuN6FnqObdDp6BaSpz6cuIOw+HCutXLqd+h1eQD2yB8Uq5vq9YNDV75Lw+I87xhhQdfaspeF7fpOqIB1h/UmfoGI77rjj9FnqOVSBorrw6aefpttvv91WcNtly5bRIYccEtW+1Yy//vWvFAym3vLT6vi4HCOQKAKu/4KJ0pXe0CKVa1dORq9YtGiRKk3FIyrtoaxbvEM7TdsxFXtiQaq6+HtnhufoZ6kKk5CtO11//fUUCBjN8FH2kksuwcGQsJ40e/ZsQ56bF+eeey5dfPHFbnbBbTMCaUPAdbKCdGVuxh6SrlIxeyeiV0Clh7Wo9at32xpybiDXVnmnC6fK4ENcq9JLVZiTn9aqoHKbOXNm1KMQVYBagX79+tHpp5+uXYaPqQpue+ONNxK2L2GpKgw9n3QwBFxVA2pYQbrSVIHI0+9zBenqogvHur7XVTLRK/Bjv3TeCtq13Z8RMIoK3LeChF9V7LWqY7TXwRdHs6C12BvKLDU0NETdgoHGww8/TIWFhVH3ks2AYzJM6G+66SY1DFOy7XF9RsDLCKSErGRrVwjBpFkL/uOxW1wnq5a2xoSeA6QprDslk+pqUh+XL5nxJlJX71eF+nqpChLVqWcem0izaamDbTYef/xxad933XWXND9WJpyKIflYSVgTe/TRR02L5ubmUlFRESGGIKQ5O5s9mjbKNxgBHyCQErICDqJ0BcvAN8eH9v/pWtCZrr5mAk1+yXyvoGSx3LpBiShgI3BGVctmWvzeSqqoiV6fSHYsqa5f17iN6itqacOaHTRs5CAa2H+Ao0MYcHihIWDty89/ZGjfTxaAGDjWmcSgtYYJ2byAoYVVsgIJIYwTJ0aAETAi4PqaldadbO1Kb2xx/2O/cT1moFUzcpT7YOoqXxMVyBaGIFhjm/7yGnpn2gJauXo7vf3aXHr2kSm0q3699miSOoaMKiKm0rJoFX5aqwIYsqC1yYCE4Law8uPECDACiSOQMskKQ5w2ZTL1HBGJaiGasn+w+FlXTdmhzutclE1D+8qdJp1Q+ckeRV19syzb8TwQ1LbVtbTlmx3K5ozmexrh3oxnF9Lx36qjkcOTU8/BqKJzfqfwXMRt6/0mVWHzRBlZwQEXW3dYSYgNKCbsQfXAAw+I2XzNCDACFhFIKVlhTLAMjGVscf/9P6Hbbou/yZ3F+UUVW/jpFtp7aDX1GzyAOnfPUe9vXVtOO3dsoao9KYcjanx2M/a3VdP6lWVUsWZnXJ8vfdsgrAXvrUmKrKD+E40q/BytAvi8/vrrepjC56+88goVFBSEr2Od1NbWEsrrE+IL3nvvvZSXl6fP5nNGgBGwiEDK1IDaeCBd6WMGQrr61S1/0W7T1T/5rutxAzetq6HZHywPh0aCxOUmUdU1OBs9AtaJkAI//e/79Par81UDEKs+X2GgkzyB+u/qK74TbgXqP71RBW74TarCmM2C1lolKrRx5ZVX4mBIcC7mLecNkPAFI2ALgZSTFUZ3+89+Zxjk1HdfNlz/d9a/CeGROEUQ0Ajq4+kzVJIFwTpBUCCdRNL3LzMaAUSr/47xlV8VMMCmiVhfEtNVV10lZsW8Pvvss9X9rsRCMidjsQxfMwKMgByBtJCVaGzRnlev+l5pQ4R14N1p2kZEG4PTR6vGHWK/qKcnKC9YJx5+TF+D9R8iVYjqPz+ZqmuYy2L5wZdpwoQJWhFLR6j6sPW8mOBkvHXrVjGbrxkBRsACAmkhK4xLpg7UWwdCHQhz9o6SIAlZjSQBgvps1sdqFHfUc5Og7IZhAlHpQypt2bw7Sv13zY+MUpcfniECyD7xxBNRQwXpJLLOhM0ZZUlGiLJynMcIMAJGBNJGVhjGW1NeMowG61cTJ00O58GcvSMR1uy3F9GGHSvD89OfiATlxWgZBf0CBqLC+F9+/gP9NMiPRIUJQOoRg9YiX9tkEed20tixYwn7XokJzsZwOubECDAC9hBIK1mNG380/eDsmw0j/tPDfzBcg7BOO1luam4o6IOLfU0BgjXiO6/PoCULFqp/M976MCxBpZqgOnWNmJzHgw/hlH7xY+PaTbTzr//WqbR5y3b2BdmMGzdOK2LriMgSP/7xj6PqwNl45crQB0siEltUgxYyUtWPhaFwEUYgYQQC7UpKuLZDFS+84mqDOXv3/FJat2CRofVzR99Ay9bvMuTxRXIIlBR3o+9fF7HoM2sNRhh3/OFGgz8ViEpcp/KrVGU2b85nBBgB7yCQVslKgwHrVwMKI7sK1zSW05hTvq3dVo/vL57kukm7ocMMuCgqjC9ZgahuueVqA1HJDCqYqDLgheEpMgJpRMATZIX5L573ocH/qqxmmcFCEGVg0l6S75khY0gdOmkSVc/uReF5gqg6gj9VeEJ8wggwAr5AwFO//DC4EB2G9RaCMGmfu36qImH18QW4Xh9k6aBupkPUiEofSklGVJCo/Bb7z3TSfIMRYAQ8i4CnyAoGF3AYDjR1DQMGC0GRsN5f/EyHMboITzQNJ3m5XaS9wphCXKOSEdWpZ/jXoEI6cc5kBBgBzyLgKbICSnAYvv1Hd8UkLJSb8v79TFgAIomU0zUnqjbM0+/4ww1Ra1TRqr9jfLVHVdREOYMRYAR8hYDnyAro2SEsBL7llBgCbS3Gxw+HX9E83Uyi8mOEisRQ4lqMACPgBQSMv1ZeGNHBMVglLES6AGFxLEH7D6/3IRHDCTEyBVpjorKPKddgBBgBdxDwLFlhumaEJZq1g7CWbP4PqwVtviOBXCKsT33n0hOiIlMwUdkEk4szAoyAqwh4wik43gznzl5K37viGmrvXh4uCiOMv/z+T3TTDVeH83Ay+am3Xd0Py9CZjy8gid79+M2GbT4wHWz1gQjqeodf5MOYglV/QIITI8AIpAMBX5AVgAFh/fL3v6OyauP24ONGTqA3X3nOgF35tgo695SfU3llvSGfL0IIqESlRLWHRKpPMmkK95mo9CjxOSPACKQDAd+QlQbO6LETLBEWykPKuvt/Jsbc4l1rN1OOF104lh5/6Y6o6ZoRFftRRUHFGYwAI5AGBHxHVsDol7+6i6a8O5mwD5aWEE/wtptviVILQsq653+eojenzdOKZuRx1LDe9OLbf6PSfr0M8589a5liSGGUVlGApSkDTHzBCDACaUbAl2QFzNR1rOsvNhAW8mVqQeS/+8ZsuuO3j2acahDhqc657CxC9HoxmUlTTFQiUnzNCDAC6UbAt2QF4MzWscykLNTJFNKKRVLzZq+gzZt20eaN0VHsmajwlnBiBBgBryHga7LSwIRa8NWPntQuw8dMJC2o+04+90S6WzGgkCWErkIIq8vP+An1LRocLsIkFYaCTxgBRsCDCHQIsgKuZlIW7sUiLaxpTX1+Bj3y4H98bYgBw4m7FIIS16QwfySNpEJXZCArJioNFT4yAoyAVxHoMGSlASwzvtDuxSItlPGbihA7KF+jmJ+ff/FpyujlW6WLJKVhAcnqiksuYt8pDRA+MgKMgKcR6HBkBbQhZd355wdoWfkHUvDjkVZ97T5669WPaLpilLFwwSrPSFzwjxpz/BFxCQqTNiMp3Bs3agLd/vPbCFHuOTECjAAj4AcEOiRZacDHUg2iTDzS0tqBxLVh5SZ69dVPaM/OipSRl0ZORSWFMVV82jhBUEhYk5Il7BWGLVgQxooTI8AIMAJ+QqBDk5X2IJ6a9CL947EHqKYxEq5Ju4cjQjf1LxlCN/3wyig/LX057RzrXAu/WqUS2LzZy2n1mjKqr21ImMRASkiQmkBM5190Kp129nGEzSbjpQfue1khp49MCQr1maTiocj3GQFGwOsIZARZaQ9Bk7S2lm+M8s/SykDaGtj9aLr8B2daIi6tXuiYpZBWxFHZeM/8ygop6WtPnDSZZn78Mc1bON90HigPdd8pI89hSUoPHp8zAoyALxHIKLLSnpC2prW8bF7MH3tIXAXduyiRMW5VqrYlQF5aj8kdNXJCK2YqPq0HjHns8SczSWmA8JERYAQ6BAIZSVb6JwcV4VOTXqJY0pZWXiOv7nmlisoQ0d7b6Kjho2js+FFakaSPemJasW6ZqepS7GhA4SgaN2Ys/fuRe8RbfM0IMAKMgO8RyHiy0p4gpK0Va5eqa1u1NQ0xJS6tjv6oERnyuivSWP+Sofrb0nOQEVIi/aEe1qJAlNOmTMYlJ0aAEWAEOiwCTFaSR6sR19TJH9KWmqWWpRtJU45maeTE61COwsqNMQKMgA8QYLKy8JBE8kpUErLQVbgIJLX+pUOo/4BSGqBIaVdcdjH7RYXR4RNGgBHINASYrBJ84hqBrVi6QW1h7sJ5YQkMZBYvgYj0SU9KyGeHXT06fM4IMAKZjgCTVaa/ATx/RoARYAR8gECWD8bIQ2QEGAFGgBHIcASYrDL8BeDpMwKMACPgBwSYrPzwlHiMjAAjwAhkOAJMVhn+AvD0GQFGgBHwAwJMVn54SjxGRoARYAQyHAEmqwx/AXj6jAAjwAj4AQEmKz88JR4jI8AIMAIZjgCTVYa/ADx9RoARYAT8gACTlR+eEo+REWAEGIEMR4DJKsNfAJ4+I8AIMAJ+QIDJyg9PicfICDACjECGI8BkleEvAE+fEWAEGAE/IMBk5YenxGNkBBgBRiDDEWCyyvAXgKfPCDACjIAfEGCy8sNT4jEyAowAI5DhCDBZZfgLwNNnBBgBRsAPCDBZ+eEp8RgZAUaAEchwBJisMvwF4OkzAowAI+AHBJis/PCUeIyMACPACGQ4AkxWGf4C8PQZAUaAEfADAkxWfnhKPEZGgBFgBDIcASarDH8BePqMACPACPgBASYrPzwlHiMjwAgwAhmOAJNVhr8APH1GgBFgBPyAAJOVH54Sj5ERYAQYgQxHgMkqw18Anj4jwAgwAn5AgMnKD0+Jx8gIMAKMQIYjwGSV4S8AT58RYAQYAT8gwGTlh6fEY2QEGAFGIMMRYLLK8BeAp88IMAKMgB8QYLLyw1PiMTICjAAjkOEIMFll+AvA02cEGAFGwA8IMFn54SnxGBkBRoARyHAEmKwy/AXg6TMCjAAj4AcEmKz88JR4jIwAI8AIZDgCTFYZ/gLw9BkBRoAR8AMCTFZ+eEo8RkaAEWAEMhwBJqsMfwF4+owAI8AI+AEBJis/PCUeIyPACDACGY4Ak1WGvwA8fUaAEWAE/IAAk5UfnhKPkRFgBBiBDEeAySrDXwCePiPACDACfkCAycoPT4nHyAgwAoxAhiPAZJXhLwBPnxFgBBgBPyDw/3Kf9AjBScQlAAAAAElFTkSuQmCC;" vertex="1" parent="1">
          <mxGeometry x="130" y="40" width="166.36" height="90" as="geometry" />
        </mxCell>
        <mxCell id="MzijTNCAyTzIatsLZHs1-2" value="" style="shape=image;verticalLabelPosition=bottom;labelBackgroundColor=default;verticalAlign=top;aspect=fixed;imageAspect=0;image=https://upload.wikimedia.org/wikipedia/commons/thumb/c/c1/Seal_of_the_United_States_Department_of_Labor.svg/1200px-Seal_of_the_United_States_Department_of_Labor.svg.png;" vertex="1" parent="1">
          <mxGeometry x="50" y="170" width="90.5" height="90.5" as="geometry" />
        </mxCell>
        <mxCell id="MzijTNCAyTzIatsLZHs1-3" value="" style="shape=image;verticalLabelPosition=bottom;labelBackgroundColor=default;verticalAlign=top;aspect=fixed;imageAspect=0;image=https://upload.wikimedia.org/wikipedia/commons/7/76/Bureau_of_Labor_Statistics_logo.svg;" vertex="1" parent="1">
          <mxGeometry x="40" y="300" width="91.31" height="80" as="geometry" />
        </mxCell>
        <mxCell id="MzijTNCAyTzIatsLZHs1-4" value="" style="shape=image;verticalLabelPosition=bottom;labelBackgroundColor=default;verticalAlign=top;aspect=fixed;imageAspect=0;image=https://upload.wikimedia.org/wikipedia/commons/thumb/8/85/Seal_of_the_United_States_Census_Bureau.svg/1024px-Seal_of_the_United_States_Census_Bureau.svg.png;" vertex="1" parent="1">
          <mxGeometry x="179.63" y="240" width="114.5" height="114.5" as="geometry" />
        </mxCell>
        <mxCell id="MzijTNCAyTzIatsLZHs1-5" value="" style="shape=image;verticalLabelPosition=bottom;labelBackgroundColor=default;verticalAlign=top;aspect=fixed;imageAspect=0;image=https://cdn.corporatefinanceinstitute.com/assets/national-bureau-of-economic-research-nber1.jpg;" vertex="1" parent="1">
          <mxGeometry x="60" y="412.5" width="154.61" height="57.5" as="geometry" />
        </mxCell>
        <mxCell id="MzijTNCAyTzIatsLZHs1-6" value="" style="shape=image;verticalLabelPosition=bottom;labelBackgroundColor=default;verticalAlign=top;aspect=fixed;imageAspect=0;image=https://orion.akamaized.net/media/cv/video_library/client/51/52/rt/44/73/52/rt/spg_dji_red_pos_734x300_YnDzO_resized_medium_ms6tG_resized_medium.png;" vertex="1" parent="1">
          <mxGeometry x="70" y="491.5" width="159.03" height="65" as="geometry" />
        </mxCell>
        <mxCell id="MzijTNCAyTzIatsLZHs1-9" value="" style="shape=image;verticalLabelPosition=bottom;labelBackgroundColor=default;verticalAlign=top;aspect=fixed;imageAspect=0;image=https://www.conference-board.org/images/pubs_covers/centerBrandingGraphic/Sugar%20Image9.jpg;" vertex="1" parent="1">
          <mxGeometry x="157.54" y="600" width="111.28" height="60" as="geometry" />
        </mxCell>
        <mxCell id="MzijTNCAyTzIatsLZHs1-10" value="" style="shape=image;verticalLabelPosition=bottom;labelBackgroundColor=default;verticalAlign=top;aspect=fixed;imageAspect=0;image=data:image/png,iVBORw0KGgoAAAANSUhEUgAAAWgAAABlCAYAAABgDHm/AAABXWlDQ1BJQ0MgUHJvZmlsZQAAKJF1kD9Lw2AQxp9oQ1GKdRB0UAwoTlFKLOjadqiCQ6gK6pamsRXS9CV/FDcH3Su6uEl18BPo4uA3qCI4iIib3cUOanm9NGpbxYO7+/Hw3HEc0BXRGDNDAIqWa2fSSWlldU0K1yCgDz0YwZimOyyhqgtkwXfvjPoduSluJ/1dp97N2+DoczVak0UlvS/+9XdEb85wdOoflHGd2S4gxIjVLZf5vEM8YNNRxIc+5wM+8zkb8GXTs5RJEV8T9+sFLUf8RCxn2/R8GxdNT/+6wb8+YljLi9SHKIcxBxUSFMxQTcGDjU0YyP0zE2/OpFACwzZ5N5BHAS7NJkhhMGlWwjws6JiC3Nwco4z7v/79w5ZWqgCzr0B3uaVlj4CLPTrzvqWNHwPRXeC8yjRb+/msUA8569NKwJEkID5y/jIBhA+ARpnz9wrnjRPa/wBcWZ/KyGR5UUYjzgAAAFZlWElmTU0AKgAAAAgAAYdpAAQAAAABAAAAGgAAAAAAA5KGAAcAAAASAAAARKACAAQAAAABAAABaKADAAQAAAABAAAAZQAAAABBU0NJSQAAAFNjcmVlbnNob3TB2CZiAAAB1mlUWHRYTUw6Y29tLmFkb2JlLnhtcAAAAAAAPHg6eG1wbWV0YSB4bWxuczp4PSJhZG9iZTpuczptZXRhLyIgeDp4bXB0az0iWE1QIENvcmUgNi4wLjAiPgogICA8cmRmOlJERiB4bWxuczpyZGY9Imh0dHA6Ly93d3cudzMub3JnLzE5OTkvMDIvMjItcmRmLXN5bnRheC1ucyMiPgogICAgICA8cmRmOkRlc2NyaXB0aW9uIHJkZjphYm91dD0iIgogICAgICAgICAgICB4bWxuczpleGlmPSJodHRwOi8vbnMuYWRvYmUuY29tL2V4aWYvMS4wLyI+CiAgICAgICAgIDxleGlmOlBpeGVsWURpbWVuc2lvbj4xMDE8L2V4aWY6UGl4ZWxZRGltZW5zaW9uPgogICAgICAgICA8ZXhpZjpQaXhlbFhEaW1lbnNpb24+MzYwPC9leGlmOlBpeGVsWERpbWVuc2lvbj4KICAgICAgICAgPGV4aWY6VXNlckNvbW1lbnQ+U2NyZWVuc2hvdDwvZXhpZjpVc2VyQ29tbWVudD4KICAgICAgPC9yZGY6RGVzY3JpcHRpb24+CiAgIDwvcmRmOlJERj4KPC94OnhtcG1ldGE+CkL9slcAABORSURBVHgB7Z3Lry3NGMbXwcSRICIihBhIECQuIQzEl7gmEiHEbYKpz8Cf4E8wwIABBph+ZsKEqS8RCYm/gBgJRt/EZf+W85y85z116erVq1d376eSdaq6qt7b81Y9Xat3730evPXtH/7vycUIGAEjYAQ2h8CLNueRHTICRsAIGIEzAiZoLwQjYASMwEYRMEFvNDF2ywgYASNggvYaMAJGwAhsFAET9EYTY7eMgBEwAiZorwEjYASMwEYRMEFvNDF2ywgYASNggvYaMAJGwAhsFAET9EYTY7eMgBEwAi8xBEbACBiBWyPw/ve968TnfXefWOhT+d3zf1Dz9PyjNn2x//GEgzQe+Fe9D5JJh2EEdoKASPfZb3ztTMpLuP297//4rOa7j+oldG5Bhwl6C1mwD0bgHiAAMY+Qcu1kLIKvQQZZH4WoTdC1LLvfCBiBixHokbJIWCdgXU8xjG6RNY9G1JbsEYjaBK1sujYCRmBRBH7yo+88RZoiYMhT7SWNfvPusQmndJW9k7QJWpl0bQSMwCIIZJJEKWR8LVIuOR19wPZXv/6t0rTN97341a9507c376UdNAJGYBcIRGLEYUhZn7/89W+rxQAp88jj9a9/7fnz4M7yNU7s1w7IJ+hrI2z9RuCeIBAfaax9Yi5BDEHjkwqn6L2RtN+DVvZcGwEjMBuBSM5bIcK9kXEJfP8mYQkV9xkBIzAZAR5rcFqFEN/2jmc2c0rFr1jiDw9j/5bbJugtZ8e+GYGNI6BnzpDzln4QJ782Dl/XPT/i6ELkCUbACLQQ2Ao5Q8ql96Hlu55J7+nXxE3Qyp5rI2AEhhHgsQFvaWylQMKtwrjmPBsmKoat/Qai3+IISXLTCBiB6QiI7LZGakQQnz+3TtWlaPlGwCl7C3GZoEsZcp8RMAJdBLZM0DXn5TPjU4ibk/UtidoEXcuk+42AEWgiANlx2jxC0Ym79qbHrYjaBH2E1eUYjIARWAyBGllzM4Ko17wpmaAXS6sVGQEjsBcEHj586end73rH6Y1veN3pH//81+lXv/7t6d///s9T7kPW+VS95mnab3E8lRJ3GAEjcHQEXvayh6dPfuKZ0+c/96lzqH//+z9OH/n4l04vvPDCE6Hr+XMkabU19oTAwhc+QS8M6H1XF38Io6+Cqu87No5/ewi84hUvP33sox86vepVrzz94Ic/bToYf52diWucpLsEXTri16Lg1zwpbNL4R0rOnZV/2Lz6DaSarbjBe8+AajpK5uPfDMjgx/my37MdZf78p9/Ey3M72suDGbM5yb80hpLP2U+uY8403sKd+SXsWjLSqzpi15Kr5SrL9PCNWCrerEO+leqefmRaeNfiKNmq6YqYZbm83hiv+RzjFhbMj/1cl+zlOTUbyO+hxHWBv6WYl4xjF7/qrVOZFhULm8SvVWSf5OQElXxY07eS/VJfjAH8uF6q5E2Y9Spva+CS45TN/HWUV6xqRTo0DqmsXeSD1lzLvmLMc9AxUvTVfUSmNRf7USfknvPQkt/iWF4LMb5r+LsLgi4FDjC1hVmav1Qfi45NM6dcO5kjPs2NIdvIm5BxFnHpZHGL+LEpotKpFB/VR7tXolxv7iXj2NEn6sHXOWu9dROK+mN7jp0oH9s536yJvRfyE0l6ZB3NiX34h4SljdczTEBz7pzRFkDwiUlXu6U76uj5Gcf1uEZ9LFzZo4/rmt04T/LUimGtDX9JDPg4ZUPlWCPev7vbkBk3MKjFH2Ujbr12lqvZ5LfDsK9Sy2GMqeYrOuaua9mPdUlXfATSItvob9Q5Z72hq7auo+5eO3/TnLKWejq3Mg4+EfPWmr7U592coNkoABPvXgQfgboUjJb81EXLpo9lSwtzagzR/5E2OcqEppyRt5y7Ed0jc3OcIrdaf9YdSXwtn7MPXGcsS3Ousd6yzpLdVh/yGcMpsbR0LjmmG5dq/I0f9bdsxnhirC2ZOWPDJ+g5RpaU0SaLxAy46l/SVtSVk6BNH+fkNps7JpJx/OZkuYUyJYaen/FUCkalXFw7Nz0f4zj5UC5Vx/Hcl/MX5167nX3p2btkvSGrPaV6Tt7Iv+TxF71z9PRinTIu/KI/6mvJxz+iRP711+9iHHHdt3RdOrYaQZeAWWPxl+wC2qW2lbScgLgYZINafqjOcmtcZ9u1GORLnq9+xaXrWBM/H+agX3NVx7m5Pcde1sF1TQ9jeWPlG0opf8jVSsnWlFhr+ujHp1wgulKJ/moc+/KLmk/PJ8gn6qIdCUm6WzV2oo61yVmxcvCgPVLwFTlqyRKLdKKL67VjGiZonIx3GBxn0beSWZJBLj87pG9KYbFFH1onwZJt5HunWCVJNXpiKS34vLE055z08INFdGos6ly6Ld9VT4lBPiDz/uCz+okl+q68Z91n+TsdyhMyWVY6VV8rV9hVyUSkftXCiusop/FYl/xlPD/7jzK19llXWmOaW8Mtrzflgvml3ElfrUYu5jHfvGpy6o+y5Fv+aPwaNfnClvJG+7zW7oypL/pV80Fznr/TJ79Vg4PGqeGb3uGmZme0f5igFfSoob3Nb73lUNswMUbmqLBgYiHJvRtEnD+3fWkMU+1qIWsRl+RYN5DGHPIq6Yt92NWNIPbTLuUqbmhk5X9e2zlvWfca11N9WGK9CQflMWIzGmvGclR+6nzhozrLKZbYr7klzEp+gwsfEfV5Ld+tZxXp0/WS9TBBzzFOAGvdcbJ/MQl5bPSaOFo/9CstBtlAVslXrbE1614M8qWWM/pLRYtYsQkLXUumdSpbOlfoK/lbe8whn/G1JKcYVNcw0vhIja4YP76AnT6c2vLai/5mW+gT9tIxNaZ4syNfU0u0iUwr11N1zp0nMo3ywriFQ2ss38CkuyWjOXPrYYKuLfqWA71HIC3ZKWMt8ge8OQBqM7ROodG3vJDZUC1ZNs0cv6LNXrsUgzZtT5ZxLcgpczVHMekbAvYiDq3HUXNzpTUZ7WD3q42bSYncIjaRLBVbrpdc1+gSdtgBv0gy+BYJb3S9Zd9r1/hA7MKHOvpVk6P/jNmjGwvX0jFnHSE/p4ATdpVLxTM1hp5NxaLYpqyTns7W+PBrdgRa+rSMLD0mcKR3KfClj1oxxgRok8R5tTZz8yfOzTHEsaXapRjQnTf3XHvEBynqU9IrH2QDmaWLbMRcYaPkj2wjoxI3tPriuPrWrkd8yGst4zyy3kRCijfrUn+p1qFAY9ht5UHzlqixw1qUv6wH/BnBcYofGZ8pMnPnDBP0XENLyZEEJQCdgL90AqKvORm1hV7rj7piO8YQ+6/RnhrDqG1wJw59avIx1mvnKpJ0ixzyt654+r6mjzWMRvuvvd4ijqO+ZdlRX0ftMZ/8yQ75g5jzup+jtyajNXJNG9gefsRRc7jXHzdpnqtgc79kVPP1WG3NzYtB/arzfPWrrtnWODU2lHyuuUnExOQTQu0HYcyLevCtZb/me0sG/0qlF0NJpmafufIh6iU2ckQf4xkX5BirlZY9ZGSzJq858Rlq7ZEK+Yu5iDpbPsZ5tFs+T/E369M12GXfpS/jWjsl4lu88XAtHbJTq8GntN9q82O/9kbEFz/y6TrKzG3nGMmd7M/VOUWOG3y+yU+RG52zCkGTqLhpspM1QuvJiQiyvnjd0sFi1bPSKJPbSrgWnGr15/m1a+xFHNBTs9/yu7Yha3bpl6/yXbX6sywLv/WqlnxAXrrQ0ZI7432HQa20Yp6aK+axLuQT/kBopTiZy3gu9E8pS/grO5ChyLTmU82vWr90q8bf2nrTnFhDQCVf4pxaW3hPyUNNR6+fvEo/c9ciZ/mlGHV9jXp3jzgAgURA6msAJNCzrbgwYhvfaoWNFDfT3MVf09/rb8XQk22Ni6xbc8DlGieoks2pcZZOQDE/Jd3X6mMt6FOyEdfVWusNHKPdkl+tvlIe8um/Jd8ay+TM2sLeWntqrXUy6QQ9x5k5MiSkJKeNxFhpPCdyyhxkpDe3sz5ds1jj104thmgvtiUX62iTfnRIRnWcP9LOukuypRhkV3VJrtWHHCezSDDgJH/yRo26ptqULsn25FpxSgd+xXzS3yOknl3pzv6qP9YtXVE+4hfXS9RVa0c9zInyLfvSlzHK+no6IM54QwHv6IPsjNQlcsYP+iNWIzpH5/biHtVXm9/9g/01QfcbASNgBNZGAHLXoyBs69sb/ZS1iPNsbIV/dvmIYwVcbMIIGIENIhDJmW87IuRLT+UbDPXskgl6q5mxX0bACDyBQCZnPc7g0YaI+gmBA1yYoA+QRIdgBI6OACSsxxicnEXO6jsqQfsZ9NFXtuMzAjtHABKOp2e9lks/P4Bc6+2gW8A46S2OWzhmm7dBgEWvU4k80OlEtfpVS0anGvWX6trcr3z5M+fpP/v5c0+I6etrzfYTkysX6KD0/JNv58mP/pFd1XEst0vyeQ7X6Ir68K/nW9SjeGKf9KmOY7TxjVIbPw8++kdxZJ9qOYqytCWPrSn2sny+lu/0x7dsIOd4neWOcO1HHEfI4oIxsBnyq2dsBD6t/02d8amlNPfhw5eevviFTz+lQq9lPTUwsYN45H+J2LKa7JtkiZ1TXCSLLMs18/G59clyyPT0Rhnpjn3yEx9LcQqHKFNr1+a+9S1vPn3wA++tiT3uly8jMT0WTg1iQR8FstdNA918lrgBnJVv9B+foDeamFu7pY0Q/dDGZdOUxuPcLbXZxPn93ZZ/zC9tfOKHABlrfa1ujbXsjo6VciAf0VUaH7UxZz4+gAFYLelDzCGkXcrRHH+3LOMT9JazszHfRExsDjbhHgq+6muwTmJz/SZ+Pf8snVLn6l1SDh+J99JY5/rEusAHfS7FSXGgT2SPDT7K61xf9yBngt5DljbmI5tlDwStjRw396WEQSo4HUIcS+i6RmojkV1Df0snuOikS83jmLkl4iud6MKGbgBzde9FzgS9l0zZz2EEtJEluOSJ65anVMXTqiGwWxRuirLNjUI3yUt9iTcddEbCvlT3luVN0FvOzkZ9i5twoy4+diuSMsQBaS9RREJL6LqGDnK0dtG6iNiA/1xflKuYQ/VFG2vHuaY9E/SaaB/AVvzaueVwRApxI6u9RAzSJTtbwkLxyce1fIM8I5nKrkhV15fUW8T7knh6sn6Lo4eQx88IsDH4aBOWNj8/td9KqZECBHLJc9EcH5hkLGo48LVcX9WzniWuY45Kb5IwXvMt2mfeaJHt/P9AEi+54KYxEnv0QfiW+kb93Nt8E/TeMraCv2wE3vvNBXLjU9toU54LLkmO2b94TQwlksL3UmxRdqQt8ogypVNkHF+i3cqR3jTJdvB1So6Qi2SY9ZSumV/CgrmX4iG9uunquuTH0fpM0EfL6ALxsAFK5NZTXSPuKMdGbv1PLXHu3LbIoraR6R890WVfWgRWs5t1XHJ9zRyBTSu+kt/ceFtEDLlOWR9Z9xpYZptbujZBbykb9mURBCADCKZ1UmZ8DmFkB+87gYAHWJ4/nUdc17wp5rwc5doEfZRMOo7HCEAWnOZa5MmzWOa15jxWWGhwE5grW1C36y5h0TpBg/VIEbZ6JDMqP2Jry3NN0FvOjn0bRkCk2zsdQyaaO2oEOT5zHgON2trDfGEhUi35zJzRxxwtfSUbR+zza3ZHzOo9jgkSaJ3kIjTMHS18Tef0DXmYQP7/eAMMe1johgl+lxbI/r4UE/R9yfQ9iJONO3XzjhIGeiEX3QB8ev7/ggKPHjlr6XHjHHmLZ3S+7Byp9iOOI2XzoLGwqVvv7+r9Ykh05GRbO2lDOs8+wlKEj17sQMw9Qmr5ilr5G9MVbcZ+tfG1Z1dz16zBZ+rNipti6we32W/iVR5y7Mp1ljnatf9HlaNl9MJ4IiGNqBrZMKW573nPO8/mfv/7Pz5hVv480Vm4YAOX9BamPu6S7rj51fd40l0jjsf+UrskX5oXdU6RKc2PfSUbsU82psjU5pZyxNwpOuXL6Pz45od+sIsublj6FiTdR6xN0EfMqmMyAgdBIBK6HjERGjeFqSf3PUNhgt5z9uy7EbhnCMRHJLXfmDwSJC9+9Wve9O0jBeRYjIAROC4CD+5C0yMY2iOPV/aIit/i2GPW7LMRMALnN2qODoNP0EfPsOMzAgdCgBPzfTpF+wR9oMXrUIzAfUCAtzf0aIPXE/XI44ixm6CPmFXHZAQOjkB8hx2SPmoxQR81s47LCBwYAU7QvMVBzQl6iV8h3yJcfga9xazYJyNgBCYh8Nwvfnkm6M9+5pPnZ9N69DFJeAeTTNA7SJJdNAJGoI7AkUnaBF3Pu0eMgBHYCQKQNG938Dyav3Xyl7/+bSeet930bxK28fGoETACO0OA59E86jjC4w4T9M4Wn901Akagj4Bevds7SZug+7n2DCNgBIzATRDwa3Y3gd1GjYARMAJ9BEzQfYw8wwgYASNwEwRM0DeB3UaNgBEwAn0ETNB9jDzDCBgBI3ATBEzQN4HdRo2AETACfQRM0H2MPMMIGAEjcBMETNA3gd1GjYARMAJ9BEzQfYw8wwgYASNwEwRM0DeB3UaNgBEwAn0ETNB9jDzDCBgBI3ATBEzQN4HdRo2AETACfQRM0H2MPMMIGAEjcBMETNA3gd1GjYARMAJ9BEzQfYw8wwgYASNwEwRM0DeB3UaNgBEwAn0ETNB9jDzDCBgBI3ATBB78967cxLKNGgEjYASMQBOB/wEhEscS84/2LQAAAABJRU5ErkJggg==;" vertex="1" parent="1">
          <mxGeometry x="50" y="680" width="213.86" height="60" as="geometry" />
        </mxCell>
        <mxCell id="MzijTNCAyTzIatsLZHs1-11" value="" style="shape=image;verticalLabelPosition=bottom;labelBackgroundColor=default;verticalAlign=top;aspect=fixed;imageAspect=0;image=data:image/png,iVBORw0KGgoAAAANSUhEUgAAAfEAAABdCAYAAAC1m19cAAABXWlDQ1BJQ0MgUHJvZmlsZQAAKJF1kD9Lw2AQxp9oQ1GKdRB0UAwoTlFKLOjadqiCQ6gK6pamsRXS9CV/FDcH3Su6uEl18BPo4uA3qCI4iIib3cUOanm9NGpbxYO7+/Hw3HEc0BXRGDNDAIqWa2fSSWlldU0K1yCgDz0YwZimOyyhqgtkwXfvjPoduSluJ/1dp97N2+DoczVak0UlvS/+9XdEb85wdOoflHGd2S4gxIjVLZf5vEM8YNNRxIc+5wM+8zkb8GXTs5RJEV8T9+sFLUf8RCxn2/R8GxdNT/+6wb8+YljLi9SHKIcxBxUSFMxQTcGDjU0YyP0zE2/OpFACwzZ5N5BHAS7NJkhhMGlWwjws6JiC3Nwco4z7v/79w5ZWqgCzr0B3uaVlj4CLPTrzvqWNHwPRXeC8yjRb+/msUA8569NKwJEkID5y/jIBhA+ARpnz9wrnjRPa/wBcWZ/KyGR5UUYjzgAAAFZlWElmTU0AKgAAAAgAAYdpAAQAAAABAAAAGgAAAAAAA5KGAAcAAAASAAAARKACAAQAAAABAAAB8aADAAQAAAABAAAAXQAAAABBU0NJSQAAAFNjcmVlbnNob3SaljWNAAAB1WlUWHRYTUw6Y29tLmFkb2JlLnhtcAAAAAAAPHg6eG1wbWV0YSB4bWxuczp4PSJhZG9iZTpuczptZXRhLyIgeDp4bXB0az0iWE1QIENvcmUgNi4wLjAiPgogICA8cmRmOlJERiB4bWxuczpyZGY9Imh0dHA6Ly93d3cudzMub3JnLzE5OTkvMDIvMjItcmRmLXN5bnRheC1ucyMiPgogICAgICA8cmRmOkRlc2NyaXB0aW9uIHJkZjphYm91dD0iIgogICAgICAgICAgICB4bWxuczpleGlmPSJodHRwOi8vbnMuYWRvYmUuY29tL2V4aWYvMS4wLyI+CiAgICAgICAgIDxleGlmOlBpeGVsWURpbWVuc2lvbj45MzwvZXhpZjpQaXhlbFlEaW1lbnNpb24+CiAgICAgICAgIDxleGlmOlBpeGVsWERpbWVuc2lvbj40OTc8L2V4aWY6UGl4ZWxYRGltZW5zaW9uPgogICAgICAgICA8ZXhpZjpVc2VyQ29tbWVudD5TY3JlZW5zaG90PC9leGlmOlVzZXJDb21tZW50PgogICAgICA8L3JkZjpEZXNjcmlwdGlvbj4KICAgPC9yZGY6UkRGPgo8L3g6eG1wbWV0YT4KDuf8AwAAMiRJREFUeAHtXQeYFMUSLsJx5JyzZEFyUhCEh6CCCUGCqGRUQAEBkZwzCAgIIlGikkFARJJkFVEkieQsOcfjePX3XS+zc7Ozs3e7F7SK75iZnk7z7+5UV3WFeI+YSEgQEAQEAUFAEBAE4hwC8ePcjGXCgoAgIAgIAoKAIKAQECYuXwRBQBAQBAQBQSCOIiBMPI5+cDJtQUAQEAQEAUFAmLh8BwQBQUAQEAQEgTiKgDDxOPrBybQFAUFAEBAEBAFh4vIdEAQEAUFAEBAE4igCwsTj6Acn0xYEBAFBQBAQBISJy3dAEBAEBAFBQBCIowgIE4+jH5xMWxAQBAQBQUAQECYu3wFBQBAQBAQBQSCOIiBMPI5+cDJtQUAQEAQEAUHAMRPfMjIeXTu5QRATBAQBQUAQEAQEgViCgGMmnipHFdrzbVU6sbVPLJm6TEMQEAQEAUFAEPhvI+CYied4prdC6uS2vsLI/9vfGXl6QUAQEAQEgViCgGMmDklckzByjYQcBQFBQBAQBASBmEPAMRPHFLU0jnMwcuyTi3odaAgJAoKAICAICALRj0C8R0y+DAvGbSYw95wV+piL5VoQEAQEAUFAEBAEAoiAT5I45mGUxvW8RCrXSMhREBAEBAFBQBCIPgR8lsQxNVip27mbiWQefR+gjCQICAKCgCDw30UgUkwcDByM3BuBmcMgzmgU562N3BcEBAFBQBAQBAQBZwhEiomja2/SuHl4rYaXvXMzMnItCAgCgoAgIAhEDoFIM3EM5ysj11OEZJ4y+3PqUiR1jYocBQFBQBAQBAQB3xCIEhN3qlZ3MiVh7E5QinqdnXsOUbNPx1CypIl97iw5t1k4vhulSJbE1fbzGctpyvwfHPd36/ZdGtvrPapc7ilXH3ZzevAghIoUyEWF8mSn57jNMyULudp5Opk4dxVNmL3SpzlNHdKOSj+VL0KXTbqMpl17D1v2deXaTSpW6AnKmTUDFeM5vlP7fxHaeyuo0aQn7fjjIBXJn5NWTelLqVIktW2isUKl9k1eo6Z1n7etH5Wbp/+5RONnfUcJEySw7Cbk4UOKHz8+FcidjRq8XJkSBSW0rKcLR0xZTNeu36R48SJ6uOg6xiMcZ/p81IgSJPBsf7tiwy+0dutuOnziLCVPmoTu3rtH2TOnpw8a1eLvTDZjd5bn42etpHMXLkV5Tg8fhlKnIVPcfhvGAfcfPsmfcW51v36tSjzHdMbb6nz773/RrKXrKG2qFFSvZiV6ir9TTmj+ys3058FjdOHyNZrQr42rCebUe8xs/oy84x0a+ojea/gS5ciS3tXel5NZSzdQ0iTBlk2On/qH8vF3JFfW9Or3YlnJQeHydT/Tg5CHquYbNZ5x0OJxlUU/bFMXiYODqOZzZR7f8HCG3yS+/yBPY+k+7eqoDsL/0/UvXb1BLevVMN6K0nmUmDhGhp84rNMDQcLY/Y8qvkjNmDFdu3nb587xMr+8c67biypHpaZ06txFn/p6r8GLNLH/45fNqo07qX67oXTj1h2P/eTgF/NlZprZ+SUz6ON36I0XKnism7daSzpy4pzH+1Y3MB/My0xOny9D2lSKmX/c9HV669UwLZO5L/P1d+t/oQbthxEWNqDBnRrTp+/VNVdzu0abtzoMV1gVypuD9n//hdt9f14826ALbdm5z7bLbJnS0b0HDyhHpvRqQfHhu694rB9U6HUC43dKwYmCaOOcIVS+eIEITfYcPE6te0+gY8wgTpq+f5nSp1ZM+aXKpdWcKpUpEqG9Lkhc5A26d/+BvvR6TByciBdbfahK+aJudZet3UEN2g2jO/fuu5UbL7JmTEshIaGUJHEQVX+2JA3p3JjSpU7pqvJ2x5E0e9kGdd2h6Wv0WbcWrnueTkJ5oZO0SB31GQQlTEi/L/+cCufLoapj0dR5yFRPTSOUv/1qFZo5smOEcm8FW3/bT9Xe7U4peBFlRfF5EfYw5BH/dtNR2WL5FVN8kT8bX+gu45q+bCMKTpRQMfJFX3Sj5yuUcNTFtRu3KddzzehRaCjXj0d/rZlImTOksW1bpGYbOn32IuMaQvv4N/ZE9kwR6mcq/7b6Pt++c592LR+jBI0IlcILKjXsQliAJ+BFL+awe8VYyz49tbcrt18627UMv6f3uAPByCHpayt43b8wdgcfipcqWmLC0U7KMXeTMW1qcxFLP2ESPZgYJFNvUlYo/5AgKZkpKFyKM88J/d2+c8/1ov7ryCl6v+d42sIvjpFdm5u7Udd6ThnTpabLvOr1Nqf4NpJhquRJ6VT4KHiBG6sm4WtIBtBqnLtwRUlCPUfPooRB8aneS5Us52YsHDB+nouBo3zIxPlemTjq6c9PPyfKAkF6HPQN6TChSSI+z5KfllYuXr5OJ8bOpbMXr/Ai613L6eC7ppl40sTWUpuxoafv5qHjZ6lKo64EiQaUkj+jm7wATJE8Cc8xIf1z8aoq/2HzLoL0tmJybypXLOJCAJUSJkzgYuJO5mT3XcL3AEzcCiuUnzl/Wc0L/63Y8CsdPHqaln3Zk7UvyVR5z7YN6NuVm9R3atK81TS0cxPSvwtXQ9PJjEVrFQNH8UvPlXYxcFM19Z3xhCfqhrDU/sjcyIfr4KAgunDlum2Li1ev0e/7j9CPW36nCbxofoEXMk4J2rVbd+7yX1iLfmPnOWbiaIFFgF6svf7BQNq+YITt0PhtQdDBb94TAU/8Brx9b6o37kmbfw1bDEOLueWbYX5j4JhblJk4OgkkI0f/RrJi7NpoDgwef0LOEGjxZg3q0Ox1Z5XDaxlV6caG93nFun72IHq2dGFjsc/nkAY+ff9NVztIGkdPnqNpC36kxWu28wsuRL0s8PKCunB0j5auuuYT1F3JUlP1is5W7Ob2xmtIhZvnDVUMw1iOF8NPv+ylQRO+VQztCM91xsK1Xpk4VKd/HDimugpiRoLFAF4ak7/9gVr4UdVmnGtkz9OnSUkNalWmSmXdJVow5P2HTqrtlLO8iAFTXbhqC1V7ujhVq1Dc43Bgdr8tGe3xvvFGgSciqsSxiNMMHFsZM0d0pMrhc1u/7Q9mhJvp+02/0bHT59UiM3e2iFKUcQycJ+bPd9eyMeZiy2urORkrpkmVnAZ1dF/I/Prn30qFPosl7QOHT9FZZuj4GzN9OfX6sIFqXpCf9ekShWjTr3uVanrKgjX0Pqu47ajv53PVbSyM8Xv2RL0/bEhvvvSsp9uqPDJbbOYOa/BvrUzR/G7FN1jThOf/ZfffahF3lLUnnQdPoRdWjHOrZ3cxYPy36jZU9ljU7/jjL7UgKPFkHrtmlvfwG/1k6DQa1qWp5X1/FrbqPo5/50dVl8mSJKYNswdT0YK5/TmEf5g4ZhSdjNyMgJbS9VFL68LUzUi5X+Nlky9XFvfCGL5KnTI55c+d1W0WeLlB/QZp943Wg2jb7wfUS/ybFZv4hZGP3n6tqlv9QFxAAsubMwulThkmNRnHwN5l3RcrUp6qLZS0AOaxZed+qlj6SWM1t3PsVUI6gDTfnlWng1kKB/ViST62MXFIHOVYpV2vpjUT6PPRW4QtjOP83AePnaFtuw7YMnFoPrwxQjewTBcbf96jSrC98xOr23Nly+iqUfWZ4oQ/zKUjM4qW9V+gjOlSue57OsHnG5U5GftNy78rM1b6+qPGr9LQLxfQpyNmqCazlm+gnm3ru7RFXXg7BS997G+Pmb7MlomDMV4P3xbDYvKVauWM03A7h1bK/Ltyq+Cni1r/K0cfedhSwW+iyttdeUvhoZL69/59QtmCeBsav3NoWS5dvU5P8hbSyTMXlAQMu5cvB7T11tztPjQvwHbawh+VrU3jSNixuHVoc9F+wFe06Iet6l2F3/m6mQOpVJG8Ni0id8uzxUgk+gMjf6re+hiXhiGtg6HDeh5hYnHE3r1WzUfi0aRJLEAA+1hb5w9n45sMajbnWHXbfuDkWDAzUozi3dphi4mbLHncvO15fx/q4LUsMYKwKofUpg3aEjBjWsIah7hEYPLDuzRzTfnn3Qdd5/4+gcRvVDEbGbhxLJQvGNeVXqhUylgcK87BqLWxYCLexz5y8h/XvGpVKUPQfIBO8p7s+u27XffMJ9NZG3WFDQVBXQ3aK3O92HKNRW3RArnVdKCGPnn2gqOpfTp8urJ9SJs6BX3WtQXdDbdhmMwGtafOhRmfOeqIK6XnPrD9cpFV/7ANwj51IKjbyK9pxuK1ioFDi7fm6wFqIRyIsfzKxDFBSL9g5FrFHYhJ+9qnmamDoUviFl9RjD3154zqRGlYYgclTZyIsPcZG0i/UK5ev8UGOEEep/TF7BVqKwAvkx6t66t6+iUMI8GBX3zjsW1svZE+TQrXZwLmEyjKwgu5h+HGcdi3HD9rRaCGCmi/+vtx4sz5CNbj7Vhaz8SSM/aAtYbGPBlI3l99s1oVYxHV/M3q5iqx8hpSMCjkwUPXQsZuopt4qwqLYlAeNi6rXK4IAR8QLOonzFmpzp3+h4VAfbb8B2GrrlbLvkoj5rS9k3oDxn9D42euILwHsFW2elo/qljKs1bOSZ92dfzOxPVgkMordnwUq5i5nhukdPzpLGzC0DUykT/CYO0Uv7z/ZnWq3V/kR3jcEvvuiZl5g+Di5MmCOpT3zGF4ZTcf3PMH4UWzfvufqivs2ZU17QvqMfDDHvv1d+oSDEmrQFuzSxR+8CBIZpu9WIWrirHoPxhqaanwf88UC+jMmtR5XvV/9cYt6spq6VKvtiNY7ccVgjV36KNQNV3sxZstn5vXq054NtC6bbvpzD+X1bnxP0jhsEMBwasCC8LYTv0Nhpxwqaz6tPfvCQzaIDVjz797+IK39ds1XY/6+YxlLoM1V6GXk0kD27rU+DCCbN71cy8tnN/+bOoSGsLbJddv3VbvppXsNgrX2EBSlAzbIOF6MyQDM8efZpR63zqQD+VL33o+OEJ7gLn+V2jwl/Np2FcLHT0ujFW2fjvcY124h8Gn2s4n9QGvvod80oQ6+mhMZzVoSTZogWEQ9j5P8B6ZFcFQ7P2e49SPyeq+LvtmTBd6hffyvNGdu/dcluG6Loy7wLzb9p2oVOhwI8L+uCcjoS94Hy9D2pTqBfxJq7q6G+W2BwkDbkGXr90g1IuqkaCr8wCewI9/DMcKGDczbGEC452G7DNuR5CAggvXtqvC9geZ6Yfp/S09GYazQRIktGvM6GDxvYstnl9p1U99NrAMh1EdPk/4YzulBLyA8jan3KyiXzG5T5TsSNaw1qghuwjeuXufsIhrGr4gMc4TGLbivfyxjOlDXhxPZQO3Hm3CNDa6HqQ9EJi3ExsKGAPCJc+aHlEd/s7OHdXZ+rYPpdjvnxyuIdDNrvDCFYwYNiAgbHV0aPaaV8+YQ8fP0MLVW1Ub/M5er/60Os+cPg198FZNJYUDK/xW4JLnCy3krZYSr3ykVPNwcR3ENindorglgQUHPhdoUPC5jOrWnC3oPRt4+jJfu7pRYuJgfNhvdsL8NHPEEcxf709rJmo3yei6p+ei5xpd48bUOFBHhYY+dDS8k70j7cLhqMMoVtLqSHTzkJ/DE927HyateLrvzT1Et0ueNFj5muprHHNmzUjYlw9m9zj4sMM/Gfv2dhbzo6cvYcOa66puM1OgFkjjYIiwql/M/vwH2J0OQW5imuAFACMd7PMZCW5dWLyB0YCwgGnFUqHZOtnYBufaL95cbryGcaAnwgvy18WjqMeomUqrAWNDMAlIpvg84GuNIDC9Rs9mw6c2EXy6rfrFs3gjuzkZ28JgC/EFjAQtBRY82O/WlvXp2S1zoMmKXbdpzh4KcDODD/543n4xMnFI8lgEgGD0WbKwd2MpfEb6c9JjGI+r2ZrfH4RFldGVztwntE34Ptm56uk2E+d+75Ky+7d/WxerY+tGNZUnxz+XrtJIXvj6ysQL8u9q9medqCkHvsJnM5i9S55i7cCr1cq7jeP0YumPO5iBz3Op/mFwOJoNE5vZeAw47dtbvSgxcTBvvd/siyRrtBrXDFNL6tdPbXQxeG+TD8R9PAf+YoOBXiCez9gnGCEiGHkjRM4q/VR+22pYEdd9qSLltIn4hH7ah+9n2Xbm4OZFtlQF5cmRWTFEqyZwh8OPMk+OTFa3VRnm5CSC08UrYT7Jxo4QJQwUj4NcYH/2vQYvUd92bxmruJ1PYgmFh+MAH7wvx1LibxwJzkwvVi6lfJshtUDC+LxnK3OVaL8GgwRBQ2BFCPgCJtiL3ZisAuaY2yAoSemn7BkPFkR2BFcjBEPpwtqMVT/tpG2/HWDXrD3se32G0vH+/PlL19SeJIKQbPlmOLtuFbTrTknx3iyHoUFwQrdZY3P73D3LqjfY4BEBP2A1b7fYK86RAEsUfkJF87t774Fym9MW7lClw1IbrnOdW75hOY65EJ4Vnqz00X/tcCnX3M7Xa/hVG+MLoD0Wpfd4DHxm2HaC3cc7HNhmQr/WHj1LVGTHr5er4a20DfAIwT7zhp//5AXNPZq5ZD2987pvXioIGLX30AkaPW2pWoQ3bD+cg7CMU1ogX54bixJ4lWARiXfOLd5Ow/binxyQ6D3WgHxpCGzlS79O60aJiYMZg5FrCRZHMGHERdfM2elEzPWN0npMMHZoGP7tjBxqbU+SgNPPTdeD6wbUetGlAv6VfU5BWPF6evliTo3fqOYXP3G8nKAm1y8oSEKL12wLcxPj/fm+7Gb1AUsHdjScty7AECGtT53/o/J9N9fHC0HTeFan9uYAIOnCrZV1eXQfEydKxC5+pQguiZqg5tTuTak5WMmpzdP1La9HLBy3zR/htZ6TCmD2Tfgzxp8m+Np3GPiVYhjQNvX9fA6tmtpX37Y8grH6a06wwIbroyYs1mCbgc8ezGn11H70vIPYBZ1b1qEWvF97lSXFEVMWKbc1aD6mzl+jur5285ZX3289B0QCdKJ21/Uje0QUOm14Zu5j174j1K7/JOUHD2b+Qa8J1OjVKpZSOaRwveePz/iFpr3M3Sm1Naz7oQXDPrSvTBwd9mzTgKA5gRsbFl912gxSUe8iDGZTAG0JCBqhAR3e4WA/yalNn4lKwl/JGiGEpv6osedIhjZdO7oVJSaOEcB8jUxWM18wdDB4o9TtaEbhlTy1i06JHYwcxnlCsQuBEZMXucJbIqSik/1sfzwBYr4b/cSh8oZRDCxu2/b7kkqyD6gniQ91L7B0CIK/uxOC5AdpHJG8YpISJoxPfds3omIFc7um0ebtWlSmdgd1DRV2v3HzqFcMz1NPDsyqVtUylLVCY1X0w5Zdinl6slPQ7fx1rFmlNIdUbeLW3dN1OyomjkUFVLgnN01zu291UYclRWxjwMht94Fjyn8ctgBaLd65hTMp3KrvmCgrWTgP/TR3CCUrWlcxTKjWYRD5ctWyEaaD4EmatGGqvrY6nmB3NWhkEGrXV0LeBNi1nGfVPHz0wYB9Jc3A8bsA7eeAPvBCgccKAssUzp/DpwhzvozvF+t0MGsrAiMHI/SnFTgWDfiDlAwGiz/t0uZpHlZzc1qG+QvFHgRghfzp8BlqQpBoO7Wo7Qr9Gt2zrM1JGHQCEqjPXnt/gEt6MM9lIL+UYGgHVToCVlTjgCSe/rCnrCPjOTU8NI8X6Gski4GaMEuGtGqPd/hXi+g7DnEaHbSJQ1gi6Y4dYV5aaxLMmgRtOW/XJpD35o/tSthyAkGd7NnIzH0WH77zsjKAg70JJPBBE+a7KkSHZO0azI8nWTOlVb0lYQ2Wla/4nOUbKVXKpKoOtqlSsora7g8VsZ3TnxeSkSHYxXz3VS+XRgAatvMXwxbcTvqDncOH77xCmoGjTT9e9OoENpDU67QZrAxxnfTna50oS+IY0KxWt5qEUeWu2/grHalRatdqeX9J7FqzgDGEYg4B7NuNnraEerNqVEsi8BU3h7eM7hkifjtUcVCXYiXfsvtYmjEsTELVc4H0tI/Dk4IQ5AMJFbzRy+y/CikFakf4wsIaN7YRjNh2sqp40rzveZ53lNX1gR8mEvbIA0VQeTZsN5SZ8i2atWQDLZvU07XgMY4JzQdsPqCSRSwBq3j9xvqBPkd2sFmcXKTxJ6PUNgTmh20gb4wYBm560folq5h1UKBmdauzl0OqQE/b7/1DdX00PLgNvtvIgGembiO+puPsPw+1NLxZYB/giR6xZgOxyWFrgG0LRLHzZlhp1RdcQqexRN6JE8bA68WJ4Z3uBy6lVkmPsDDIW7Wlii6HrSfEbN+xcKRu5rejX5g4ZqOZp2bW3maomSPq6TaaUfqDuev56HlYjafveTuirZ6bt7r/1fsIpQgr0TlsGWxHyPgDS1tP4V4Ryax178dMDoFDkMYRlsF6vxgvRLycV3JiCzvCnMZ+vYwtvcPcVDzVxZwg0euVs6d6nsqXTOxB5et0VMYsS3/crsJltmvyqqt6n7FzlPENXGOcWtHCUv033kPEC6UPL1ysmDjc64xYuQY0nODZhvKL0JuhmKGJT6eQxiGBwyIZL2VIHN6SS8DQSQcq8TYYDMCMhPjbFzlGOyRTGDUVeL6VsuB/kdNLlmHtADJmrf7pN8KWi17sNXzlOWMXludIABLZOVl2aFEIFymEJIUrErYgWvGCDypmqxS4ujk0Ny3q11BzS8QZvBDpDG503pi/bq+PP/2yx4WHLjMfsS0FD4OoENw9f2FGaiZY5kODAmlZfy4wWDPH2N+w40+lakd7GOO1rOf++Zv7xXXH5rUJvzF8J3qyRwKyzEWGYD+DRQYMB3VQmsj0o9sgNe53X/Wm8ryVAgNaRDJEKGBPiZt0O1+PfmPiGBiM07g/7utkwCxB+qiZO8rARKPC3NFeM2LMU0vqxjEwjhXhmYTsEYBvpNNwoVAVj+39nmWH2JPSCQOsKiDjE9TQn/P+tFY5W9VDGYyAlq/7xdNtt/J48R7RtKHuErRbBZsLMI/P2CcUzBbBXDoPnar2x5GUAwsQJEgBYW8TrjFOqCaH30zA8bxBSYKDaT4nFnmTrf+NhBfNhDmrjEURzqGy7GNjMR+hQSQKkIlL74/DYr/HqFls4OPuEmTsFlqVVj3GGYtsz42MHIEzkCHuz4NHOQHGUWaGV9XfBo6njihn93mBgGx6mrBw6mnysdb3jEcsLJzOCRnJPMUHN/Zpdd6fcVnDe/QwcnvEFV5p1Z9Ob5luK/k1f7MGax3Wu1L1Io74MyULWXXvsQzW2/izo838PY1MKlJjn/g+mhdDUFcjpScM9DRBI/VF3w/0peuIBQ6+19lZm6ODu7huejhB8Je+4+YqRrl26+8qRGtui9ShHpq7FSMpCjRn/mDi6BipV6cPbU8fD5qstp1mLV3PmeZy+jXCnl+ZOCaN/WnsI2tGjDJ/EPrTfWrGGxXGriV1Jwxdj+uP54gNfUCKVf6a4f69UZkTkkYgK5FdOk9j/wja8Ei9voylfM5vNKu0f1jBYr6I8PQ/jvAEa1Yk47CjfLyC/+vIaR/mFKpSWFr1iRd2cl50JLEJo4p2sMjduGOPUoFjzrCIXssJD9Zt3a2eDVa02N9EX05pYKd3qcvQ6XT2wmV+Aa9zMXEYRyGhghPKGAWVKxZm2MfFeHak98e7sh85srHBCr8cv7zMPrdYUGDeTlWVUJ1b0dcjOigG3p9f3D/9zAskXutgnlDBasI+JaRcLPaQ/MMTwcc/IS8MnX5/Pc0J/UOtiueDBsiOsD9e+EUwsHgqVS4s0KewKtcTIZ86fmdY3MJTwOwz7akdyrGl4CQWAqRY+0/ZbhSk+gyz0Ia7l5mwmAbhM4FXB4w/oY0z52RHmuFFq7epug/5N/Ta8858trGtgP1oBBzC96/zkGk0f9ynqh/9H2xWQNAWeSNo1grVeF8turX2z6rN7XBffbzT7OhdTrKCxTxCBMP1sWU35HzPzguxJ+2aOb4Xj184UfnsPA4ESVczW4+VAnDDyNg1o3Y6jJ10/m+yUtf+vlD3aOMfpxiZ6+m+zOV211iFQ5VmJKP0ZC5/gv28nb740TYyc0I7qCnNpEOporzq00XNt92usS+MqHSa4JKF59KLFqv+dV1PR+Oz6PbGMk/tjOW6nbHMyTlePGfPh1nSOwmlihChIEgxVtHSfmQpyVd6vkIJ2yZgbMhqduTEOVdEsCc4dsCzZQo7ilftzznp54eUjAWLHa3hnNpwawNhn9tOpY462O/V2ducbsmgnZ4Tzr1RobzZI61OR7hRO8KzZsmYhopzpEUEqPFEJTmELvzZEfVPh9f1VNdYju9qW7YqBxNvy4tl7VOPOvBgadh+mGLgCLDkpF/gNnTSAvWdmj6sQ4TQuOgX0RWXr/2Zzx6Rpzqop+nND4coewiE0d29YqxP7zTdh9UxYEwcg8UUIzc/qLZad8rUrZj5v4mJm/GRa0FAEBAEBIG4iUBAmTggiS2MXH88WlJ3wtD13NEG2wRCgoAgIAgIAoJAbEIg4ExcP6xmiPo6NhydMnTsiaOukCAgCAgCgoAgEJsQiDYmrh86NjJzzM1JdDltXGe0VtdGb1ZMXlvTO5H6NT5yFAQEAUFAEBAEnCIQ7UxcTwzMHBQTxm9qYA//2THzqC5AtOSPoxXT9zClWFd89+oRunv9GLsTrqNHbJkZP0Ewpc1fm5JlKB7r5ioTEgQEAUHg34xAjDFxI6iaoUfFx9zYnz/OwcytJGh/us95GsMf8w9UH9dPb6bjm7spJp44ZW5m5JvUUFlKtKE81Zz7/ur5IdoZUiv+zjmh4Q+dgS1T4V9t9A3WdXE8ePQ0zf9+i7HI63n3D+p5rWOs8A/7Hk8OD+vpa1tjPziH9TPyFSOIzeWrN1W+dfgzI140gn8ULZjb3MTtGpbeyH4GcjoXhKYFWcWkRvhXTcjZ3aBWZX1peUTwGvi57+MgGHBXSsCeBSWefILaN33Nq5++ZYdSKAgIAn5FIFYwcasnig2M3ROTRSx4fxLGAVktGvw5TlT7un7yJzq1cwTdvbyf8r4wlVJlq0RH1n1IZ3eNY8O/daxdqOp4CET5avzJaErLEakOHT/japcjczpObvJAubrA7WbyoI8U49MVKtTrTNt2HdCXXo/IZLb/+wkeI8RZddC0yyiO2rROpWldObmvV9cyqz6wMEHyCqQ6hP+wFQUHBXG+4eoqMApwsCIkWJm6YI3yoUcYRwS6saNxs75TfrJwexnxaXO3eM5o15cjWyFZCfyqJw1s65GJb+boWs04UQeCoJjzaMP3PDWHvH26ZEEa0qmJch2ym5PcEwQEgcAh4PdgL/6aqhVDi27GDlU/tANmy3Qd0MZfz6q3FDAW9tGtnt1fY0W2n/u3z9GpX4bQlaOrKG3eVxUDR1/ZynSiDE82oiRpnQcugHRX/6NhHMXpgfLpRoxk5OBNwpGdbty6q4IsIKLVPxyLHEx77cwBruQRGBN+tcbAMAjIgPogBJRIwKE3NXnyP9f3rY6YB8g4hlU9T2UzOGxjky6j3W4jh/ZD3nrA3JBXGb6reH7ERYe0vmRCDw4AkcOtDS50UBd9jFDBogC5yO3IW/CWLTv3U5VGXV3hMREZDwsRHIOCEqjQnwj/iaQTz+36lH6Y3p9zW2e0G1LuCQKCQIAQiLVM3Op5rZibNjZDfc0MrdpGtgz9Q4VuZOR6T1sbtUW2b3M747NYPau5fnRe37t6WDFwjJmtbGfX0MEpcxH+fKEPOW2nzsGLgChfsbRdm1XLCOiyhSXYNZt30eylG+nQiTMcWS6hGwNHCMOfw3OJ6zEHfvGNYuLpU6dUQR7MkZA8xWnX7f15XMSJLd7rOd7VZRbOtDaia3N6gzOe6UXBpl/3Up8xc2jd9rDgKEi1WDs8OYIx1amrk2g+QTx2Hd8agUtGdWtB5TnKVkhIKG3//QB9vXgdh4HdTGc4klyOBOmFgUfz5yPDCQJGBOIUEzdOXJ9rhoprzfiMzNAf++y6P6MxGlTg/mbi+pn0YkQ/jy4P1DHk5jkKCb1H8RMmpkRJM1kOc+ngYlWeOld1SpLOudRt7gyqcMQXB0GyWzS+m1v4xYqlnlSRtrq1rkeNOoyIkCsc4SfxZ6TJ366mAxyyEVJuxdKF6S0HCS+M7f11Dm0AVNAIYQmq+2JFmj/WPfwjyiuVKaJCssIeAFmtUP/gsdOcvGEWIWd5TNIxDqGLMLog7IFvnDNEhejFNfKKIxIa/prUqabU8kM6NcYtIUFAEIghBOI8E7fCzcjY9X3NiHEdGcYOadwYtU2PERVGjj6gPtd9YW7oD0xcM3KUBYqZ376wm84fmEt3Lv1Jd64epCSpmTlzFN5s5bpQymwVMbSi0JC7dOtimNQYL34CCkoc+VSTiAMO5oB4yoj46ylzGGKNWzFAPafYeETs5muc5ARUtEAur/NHaFLEcm7BsZRBEzl5BBKkIN94TNHZC1coBYfExeeD0LiIsW9FFXix9f3Uvla3pEwQEASiEYF/JRO3ws/IKPV9zdiNDFPfszpiT97IUMGAo8LEjeNjfiBjf3peOHoyslONIvEf9raPbviY7lw+QKmfqMkMvCBdPrwsrKd4CdiYLBElz1JWXd+5dojuXT+hzlPlrEY3//nV64iPHoWyejw+Jc9Uxq1u1ozpWKILYwxgYEgK0PvDhm514urF2K+/U1NHPPr1swY5eozmbNg2ZvpSzsp1XKULXfbjjhhl4khFeT18IQINwXI2QESKSiFBQBCInQj8Z5i4FfyasYMxa6M5zTit6uOekYmjvV19qz48lRmZt1UdPY5xfKt6TsouH1pKJ7b0UAw8x9M9KWfFfqrZlSMraN/il5mZL2GVeUHFxO/fPE0X982mO1f+UnWObezsZAhVJ3mW8lT8re1u9ZHB6JEhK9aoaUvV/ioyM9XmfeO4Sn9wWsxQXriAkD0rHRvYOaU2nLDhfd5HP/3PJYJ7WJf36jpt6vd6udhArWCe7LRzzyGVrAFJGyqWfpKGd2lGpYrk9ft40qEgIAhEDYH/NBM3QmdmjpppGuvgHMxWS836aK4TqGvMSS88IjvGrfO/0/m9U1k9vofS5H3ZxcDRX4qslShp2oJ0+/JfdOvSXrp35xwdXvMBq9t3uoZLyW5l8YPcM5C5bhpOQh/cZgO4Twwlj0/njv6EXmjaU2UcgvoZf2+0GaTU7DB0q8opR2s+V5refs25y9rj3mPmDPvIOitVvlxZfZpEuWIFlMU9LNbPs0V+TNM0TotZsf4nSqUOaRwZnao36alsGWCF/hJ/NkgzWuPZkjE9VRlfEPjPIyBM3PQVMDJzK0auGaluBqbqTYrWdWPD8cS2PnT5UJjaPHsZk1QdL5SCU+dTTDw+5zpOEBqP8vxvDP296l26e+0MQZVeuPYyNoDzzsTtnhUpPXcsHMk+y/NoLbtXpeJ8zpBCwTDO8Z7s3OUbafVPO6n7ZzOVoZc5L7Vd3zF1b8OOP3kLIsy1bdbIjj5NA5L7TXatAz00aCl86sRp5UfeKyIAza5lY6g3W9AvWbOd98aTcE7zK6rhkZPn1BbI9IVrlT3DjOEdbFNLeh9NaggCgkBUEAh760Slh39pWzBzHYTF+IiBZNhayrY6GucQ2XOlEmc3LlAa3gdPmt49P3bogxvMrI+EdQ9mEpyCEiRKzpJ3clUWP0GiKDPwsM6hcs7LvtHdadO8odSu8av0XLmnCO5Y2h/6MufhPnHmAtX7aCgtW7tDN4u1R0inIewHDnqLrep9IVjsa5eu5EkT+9I0YHXz5sxCWIz8uniUUu8jv3OOLOmVtgSD3rpzl3b88Rc9U7eTWngFbCLSsSAgCNgiIJK4DTxaKjdL5EaVemSM28CkQXqRoK9Voc1/iBTntK5VN/dvnKXLfy9Rt+IxQ06YOI1btXs3z7LqfH9YGUuVCVnivsmGb1ePfa/KMhVr6VbfHxclnszDYTzzUOeWb6juEPJ0NBt6jea98rssmUM6b9l9nFLf+mO8QPWRP3dWDuYStieO0LC+0Jad+1zV4SJnJASGAV25fpPu3rUP4oJ69++H4ECZ0z9eEKmCSP5XKG92wh81DusAVuufz1hOPUbNVAWYFyLAfdH3g0iOIM0EAUEgKgiIJO4FPU8SuZdmlrfBgBE0Rv/h2hembAw4YzmAl8LQh7ddNZJnLOE61yf3bz4Of5rpqaaq+P71k/o2BSd398923fDjSab0qWkw+x7PGd2ZUrGLEyiEQ3/uO/R4Hn4czm9d5cmRmUORJlP97f7rKJ08e9Fx38O+WqTq5siSgZ6v4B5WFYZmWdhiHAQLdm8EtT7oDkdty5k1g7fqPt+Hb3939uHf8s0wV/CaRau3+tyPNBAEBAH/ICBM3AGOYOSemC18zr2RkXl76sdbH7gflbZof+PcY9ewZBlLociNzu+Zoq7T5qtNwameUOfndn+pjmny1KJEfmLi8IfexEk17KhA7mwuFfODkId05doNu+qx4l7rt2oqNzHM960Owx3NafDE+YQkJ6AHD0IiWOiX4fjxIdwf6IvZK9TR7r+fdx9UtyExl+C99sjQQk4wo5OoeGpfOF9Ol+bh5u07nqpJuSAgCAQYAWHiDgHWqm9Ud7ov7i/m7XCKXqulyPTYmjh+UBK3+shOdvlwmJ9zkjT5VFrRh/dvsDtYWPQxWJv7g4mDybTuM4FqtexLbftOdJuD8QJhPeFHDrrDauT8zNRjO33Sqo4KE4t5IoLcK+/1t53y6OnLqP/4eaoOjPvG9Y4YrQ3hTjVBuv9ybtjWhi4zHod8uYCwHQEqX7yAiiNvvO/kHFb2jTqNpIbth1GNpr08NpnDxoeIYQ+CtkBIEBAEYgYB2RN3iLuvUrC/g7M4nKZttaDkWShpusJ0+9I+un5yI6XO+byqj9zgp3YMVudp8rzMCU3eVuf3bpwgrWJPntk9aIvtQDY3f9i0i2C8BUkRgV5++nkv5c6ekZ4tW5herVqe1dAXaAFLgrOWbnD1UrZYfsrIKUojQ38cOEqfTVlMVcsXoyZ1w57XaT+IFb560290/Mx52ybICPbmSxVV7Pep7J5Vs3kfFcsdmdoylGuktgfqvFCB4D53n6VtpCbtz/vIO/ceUv1CRd2BU3vW4TCtVjS407tsyT9XqejbDZjELl9/UPc29akYW5GDkMa1H1v6IyY7KA1nGOvVNnIBdOBOlpDtIbCAQgz77M82UVboL1YqpfzFkagGhoaT5n2vktZg++Pd2tXUuPKfICAIRD8CwsR9wByM3GjUhqZWUnlsZOCYa/KMZVQGMjDxk9sHEMKuJk3/FF08OJ+DufytLNZzcMjVZBmKoTrdu3FSMXycp2b3Mn9QD2Y+sGrG/u7x0+f5eEz9ITLYZ1OWsEr5ocpspsdCUpQxPVvpS5+P/Zj5ISnJSmacWTOnZd/miNsInjqFmnjopAWebrvKM3BqTjBxUPWKJWj2Zx1Zkh3OwV8eKWbesvtYpXUAA0/I+biR3lMTwpoCk09a1tFFEY7N36xBv3DSl/mrtihsvmUtxXcbflEaiviMDxKrwFocBAvyd9i//sXKzp/TOCAiyCGrGizm8fnA9Q9/WMxk5DzoUPnDmE0TFgxdWAMhJAgIAjGDgDBxP+MeWxm4fswsJdtS0gxF6cL+OcoS/dalPSxBcnz2Z3pR2oJ1KVm6x25n147/qJpBvZ4wSXrdRZSPyyf1UtJc95EzFYNAGNZkLJ0j+YYmMKNEnG970oC2VLZofl1seQQDS56U02XevRfhPtTUIKQozZ45Q4T7VgV3uB9I18HBQVa33cpgkR7MYVaNVK9mJSqSP5ey2l6yZhs9kT2TmhvU4WDg6Th3OJLAVC5bhAZ8/C5VKFXI2NzyfGL/NkptDYkckrtOvfqQFwp4fjwftBsfN3ud2jd5zbIPXYj2djR3VGdas+V36vv5XNp/+AR/DgnpHKvpjYFowLyrlC9KE/q1tutK7gkCgkCAEYjHSSgeBXiMf033CM0KdzOdCAVSOBKjaIrtDFzPE8f7N0/Rg3tXKT7/C0qWmd3NwiygXXV4L3zf0tqEUKxp2agt/4szmJGnc93218lWTj26bddfdPgEu7+x8RpSj0K9/kyJQlSzijMV/h6W6rU1OPy1jXSdGRvUv/nYevxpTqvphLCv/Nvew06quuqYx9U3ECQFLmSQauEup5+vfPGCkbIeB6NGfPVd+w4rxoqfbyZ2JyvNIVFf57C1ycJd0vT45uMqDqJjpJcqu+NlvIdz2CYgBOux0xc4DOstQuz7/LmzMAMvpvbdzfXlWhAQBKIXAWHiPuANhg3GrZm4ZuroIi4xcCePfJsl9IPL63P41X1U8JUFlL6AqEyd4CZ1BAFBQBCITgTEOt1HtMGszYS9ch0Yxnwvrl5fOvCtYuDp8r1OyTKG7ZHH1WeReQsCgoAg8G9FwH0z79/6lH56LkjhxoArOpKbscxPQ8VIN2d3jafEaQvQ9RPr6fLR7yhZ+iKUqfj7nKY0f4zMRwYVBAQBQUAQsEdAmLg9Pq67UJ0bpXCdutRY5qocB0/uXjvKxm6z6cbZbZQszZMUnDYvZS35EaXOVT0OPo1MWRAQBASB/wYCwsSj8Dn/m/bBg1PmpNzPDqSQ+9cpQeLULH3n80twlyjAK00FAUFAEBAEvCAghm1eANK3kXxEG7ShzHyNMqjbfQ0Kg3ZCgoAgIAgIAoJAZBAQwzaHqBn3vcGszWp07Wqm1ewOu5VqgoAgIAgIAoJApBEQSTzS0Lk3BPNGMhQwd5HG3bGRK0FAEBAEBIHAICBMPDC4Sq+CgCAgCAgCgkDAERB1esAhlgEEAUFAEBAEBIHAICBMPDC4Sq+CgCAgCAgCgkDAERAmHnCIZQBBQBAQBAQBQSAwCAgTDwyu0qsgIAgIAoKAIBBwBISJBxxiGUAQEAQEAUFAEAgMAsLEA4Or9CoICAKCgCAgCAQcAWHiAYdYBhAEBAFBQBAQBAKDgDDxwOAqvQoCgoAgIAgIAgFHQJh4wCGWAQQBQUAQEAQEgcAgIEw8MLhKr4KAICAICAKCQMARECYecIhlAEFAEBAEBAFBIDAICBMPDK7SqyAgCAgCgoAgEHAEhIkHHGIZQBAQBAQBQUAQCAwCwsQDg6v0KggIAoKAICAIBBwBYeIBh1gGEAQEAUFAEBAEAoOAMPHA4Cq9CgKCgCAgCAgCAUdAmHjAIZYBBAFBQBAQBASBwCAgTDwwuEqvgoAgIAgIAoJAwBH4Pysf1d/fzLuLAAAAAElFTkSuQmCC;" vertex="1" parent="1">
          <mxGeometry x="130" y="540" width="213.76" height="40" as="geometry" />
        </mxCell>
        <mxCell id="MzijTNCAyTzIatsLZHs1-12" value="" style="shape=image;verticalLabelPosition=bottom;labelBackgroundColor=default;verticalAlign=top;aspect=fixed;imageAspect=0;image=https://upload.wikimedia.org/wikipedia/commons/thumb/9/93/Seal_of_the_University_of_Michigan.svg/1024px-Seal_of_the_University_of_Michigan.svg.png;" vertex="1" parent="1">
          <mxGeometry x="263.86" y="610" width="70" height="70" as="geometry" />
        </mxCell>
      </root>
    </mxGraphModel>
  </diagram>
</mxfile>
